<?xml version="1.0" encoding="UTF-8"?>
<svg xmlns="http://www.w3.org/2000/svg" viewBox="0 0 512 512" width="512" height="512">
  <rect width="100%" height="100%" fill="#000000"/>
  <g fill="none" stroke="white" stroke-width="2">
    <polygon points="290.2,256.0 290.2,256.6 290.1,257.2 290.1,257.8 290.1,258.4 290.0,259.0 290.0,259.6 289.9,260.2 289.8,260.8 289.7,261.3 289.6,261.9 289.5,262.5 289.4,263.1 289.3,263.7 289.2,264.3 289.0,264.8 288.8,265.4 288.7,266.0 288.5,266.6 288.3,267.1 288.1,267.7 287.9,268.2 287.7,268.8 287.5,269.3 287.2,269.9 287.0,270.4 286.7,271.0 286.4,271.5 286.2,272.0 285.9,272.6 285.6,273.1 285.3,273.6 285.0,274.1 284.7,274.6 284.3,275.1 284.0,275.6 283.6,276.1 283.3,276.6 282.9,277.0 282.6,277.5 282.2,278.0 281.8,278.4 281.4,278.9 281.0,279.3 280.6,279.7 280.2,280.2 279.7,280.6 279.3,281.0 278.9,281.4 278.4,281.8 278.0,282.2 277.5,282.6 277.0,282.9 276.6,283.3 276.1,283.6 275.6,284.0 275.1,284.3 274.6,284.7 274.1,285.0 273.6,285.3 273.1,285.6 272.6,285.9 272.0,286.2 271.5,286.4 271.0,286.7 270.4,287.0 269.9,287.2 269.3,287.5 268.8,287.7 268.2,287.9 267.7,288.1 267.1,288.3 266.6,288.5 266.0,288.7 265.4,288.8 264.8,289.0 264.3,289.2 263.7,289.3 263.1,289.4 262.5,289.5 261.9,289.6 261.3,289.7 260.8,289.8 260.2,289.9 259.6,290.0 259.0,290.0 258.4,290.1 257.8,290.1 257.2,290.1 256.6,290.2 256.0,290.2 255.4,290.2 254.8,290.1 254.2,290.1 253.6,290.1 253.0,290.0 252.4,290.0 251.8,289.9 251.2,289.8 250.7,289.7 250.1,289.6 249.5,289.5 248.9,289.4 248.3,289.3 247.7,289.2 247.2,289.0 246.6,288.8 246.0,288.7 245.4,288.5 244.9,288.3 244.3,288.1 243.8,287.9 243.2,287.7 242.7,287.5 242.1,287.2 241.6,287.0 241.0,286.7 240.5,286.4 240.0,286.2 239.4,285.9 238.9,285.6 238.4,285.3 237.9,285.0 237.4,284.7 236.9,284.3 236.4,284.0 235.9,283.6 235.4,283.3 235.0,282.9 234.5,282.6 234.0,282.2 233.6,281.8 233.1,281.4 232.7,281.0 232.3,280.6 231.8,280.2 231.4,279.7 231.0,279.3 230.6,278.9 230.2,278.4 229.8,278.0 229.4,277.5 229.1,277.0 228.7,276.6 228.4,276.1 228.0,275.6 227.7,275.1 227.3,274.6 227.0,274.1 226.7,273.6 226.4,273.1 226.1,272.6 225.8,272.0 225.6,271.5 225.3,271.0 225.0,270.4 224.8,269.9 224.5,269.3 224.3,268.8 224.1,268.2 223.9,267.7 223.7,267.1 223.5,266.6 223.3,266.0 223.2,265.4 223.0,264.8 222.8,264.3 222.7,263.7 222.6,263.1 222.5,262.5 222.4,261.9 222.3,261.3 222.2,260.8 222.1,260.2 222.0,259.6 222.0,259.0 221.9,258.4 221.9,257.8 221.9,257.2 221.8,256.6 221.8,256.0 221.8,255.4 221.9,254.8 221.9,254.2 221.9,253.6 222.0,253.0 222.0,252.4 222.1,251.8 222.2,251.2 222.3,250.7 222.4,250.1 222.5,249.5 222.6,248.9 222.7,248.3 222.8,247.7 223.0,247.2 223.2,246.6 223.3,246.0 223.5,245.4 223.7,244.9 223.9,244.3 224.1,243.8 224.3,243.2 224.5,242.7 224.8,242.1 225.0,241.6 225.3,241.0 225.6,240.5 225.8,240.0 226.1,239.4 226.4,238.9 226.7,238.4 227.0,237.9 227.3,237.4 227.7,236.9 228.0,236.4 228.4,235.9 228.7,235.4 229.1,235.0 229.4,234.5 229.8,234.0 230.2,233.6 230.6,233.1 231.0,232.7 231.4,232.3 231.8,231.8 232.3,231.4 232.7,231.0 233.1,230.6 233.6,230.2 234.0,229.8 234.5,229.4 235.0,229.1 235.4,228.7 235.9,228.4 236.4,228.0 236.9,227.7 237.4,227.3 237.9,227.0 238.4,226.7 238.9,226.4 239.4,226.1 240.0,225.8 240.5,225.6 241.0,225.3 241.6,225.0 242.1,224.8 242.7,224.5 243.2,224.3 243.8,224.1 244.3,223.9 244.9,223.7 245.4,223.5 246.0,223.3 246.6,223.2 247.2,223.0 247.7,222.8 248.3,222.7 248.9,222.6 249.5,222.5 250.1,222.4 250.7,222.3 251.2,222.2 251.8,222.1 252.4,222.0 253.0,222.0 253.6,221.9 254.2,221.9 254.8,221.9 255.4,221.8 256.0,221.8 256.6,221.8 257.2,221.9 257.8,221.9 258.4,221.9 259.0,222.0 259.6,222.0 260.2,222.1 260.8,222.2 261.3,222.3 261.9,222.4 262.5,222.5 263.1,222.6 263.7,222.7 264.3,222.8 264.8,223.0 265.4,223.2 266.0,223.3 266.6,223.5 267.1,223.7 267.7,223.9 268.2,224.1 268.8,224.3 269.3,224.5 269.9,224.8 270.4,225.0 271.0,225.3 271.5,225.6 272.0,225.8 272.6,226.1 273.1,226.4 273.6,226.7 274.1,227.0 274.6,227.3 275.1,227.7 275.6,228.0 276.1,228.4 276.6,228.7 277.0,229.1 277.5,229.4 278.0,229.8 278.4,230.2 278.9,230.6 279.3,231.0 279.7,231.4 280.2,231.8 280.6,232.3 281.0,232.7 281.4,233.1 281.8,233.6 282.2,234.0 282.6,234.5 282.9,235.0 283.3,235.4 283.6,235.9 284.0,236.4 284.3,236.9 284.7,237.4 285.0,237.9 285.3,238.4 285.6,238.9 285.9,239.4 286.2,240.0 286.4,240.5 286.7,241.0 287.0,241.6 287.2,242.1 287.5,242.7 287.7,243.2 287.9,243.8 288.1,244.3 288.3,244.9 288.5,245.4 288.7,246.0 288.8,246.6 289.0,247.2 289.2,247.7 289.3,248.3 289.4,248.9 289.5,249.5 289.6,250.1 289.7,250.7 289.8,251.2 289.9,251.8 290.0,252.4 290.0,253.0 290.1,253.6 290.1,254.2 290.1,254.8 290.2,255.4" fill="none" stroke="rgba(255,255,255,1.0)" stroke-width="2"/>
    <polygon points="314.6,256.0 314.6,257.0 314.6,258.0 314.5,259.1 314.5,260.1 314.4,261.1 314.3,262.1 314.2,263.1 314.0,264.2 313.9,265.2 313.7,266.2 313.5,267.2 313.3,268.2 313.1,269.2 312.9,270.2 312.6,271.2 312.3,272.2 312.1,273.1 311.7,274.1 311.4,275.1 311.1,276.0 310.7,277.0 310.4,278.0 310.0,278.9 309.6,279.8 309.1,280.8 308.7,281.7 308.2,282.6 307.8,283.5 307.3,284.4 306.8,285.3 306.2,286.2 305.7,287.1 305.2,287.9 304.6,288.8 304.0,289.6 303.4,290.5 302.8,291.3 302.2,292.1 301.6,292.9 300.9,293.7 300.2,294.5 299.6,295.2 298.9,296.0 298.2,296.7 297.4,297.4 296.7,298.2 296.0,298.9 295.2,299.6 294.5,300.2 293.7,300.9 292.9,301.6 292.1,302.2 291.3,302.8 290.5,303.4 289.6,304.0 288.8,304.6 287.9,305.2 287.1,305.7 286.2,306.2 285.3,306.8 284.4,307.3 283.5,307.8 282.6,308.2 281.7,308.7 280.8,309.1 279.8,309.6 278.9,310.0 278.0,310.4 277.0,310.7 276.0,311.1 275.1,311.4 274.1,311.7 273.1,312.1 272.2,312.3 271.2,312.6 270.2,312.9 269.2,313.1 268.2,313.3 267.2,313.5 266.2,313.7 265.2,313.9 264.2,314.0 263.1,314.2 262.1,314.3 261.1,314.4 260.1,314.5 259.1,314.5 258.0,314.6 257.0,314.6 256.0,314.6 255.0,314.6 254.0,314.6 252.9,314.5 251.9,314.5 250.9,314.4 249.9,314.3 248.9,314.2 247.8,314.0 246.8,313.9 245.8,313.7 244.8,313.5 243.8,313.3 242.8,313.1 241.8,312.9 240.8,312.6 239.8,312.3 238.9,312.1 237.9,311.7 236.9,311.4 236.0,311.1 235.0,310.7 234.0,310.4 233.1,310.0 232.2,309.6 231.2,309.1 230.3,308.7 229.4,308.2 228.5,307.8 227.6,307.3 226.7,306.8 225.8,306.2 224.9,305.7 224.1,305.2 223.2,304.6 222.4,304.0 221.5,303.4 220.7,302.8 219.9,302.2 219.1,301.6 218.3,300.9 217.5,300.2 216.8,299.6 216.0,298.9 215.3,298.2 214.6,297.4 213.8,296.7 213.1,296.0 212.4,295.2 211.8,294.5 211.1,293.7 210.4,292.9 209.8,292.1 209.2,291.3 208.6,290.5 208.0,289.6 207.4,288.8 206.8,287.9 206.3,287.1 205.8,286.2 205.2,285.3 204.7,284.4 204.2,283.5 203.8,282.6 203.3,281.7 202.9,280.8 202.4,279.8 202.0,278.9 201.6,278.0 201.3,277.0 200.9,276.0 200.6,275.1 200.3,274.1 199.9,273.1 199.7,272.2 199.4,271.2 199.1,270.2 198.9,269.2 198.7,268.2 198.5,267.2 198.3,266.2 198.1,265.2 198.0,264.2 197.8,263.1 197.7,262.1 197.6,261.1 197.5,260.1 197.5,259.1 197.4,258.0 197.4,257.0 197.4,256.0 197.4,255.0 197.4,254.0 197.5,252.9 197.5,251.9 197.6,250.9 197.7,249.9 197.8,248.9 198.0,247.8 198.1,246.8 198.3,245.8 198.5,244.8 198.7,243.8 198.9,242.8 199.1,241.8 199.4,240.8 199.7,239.8 199.9,238.9 200.3,237.9 200.6,236.9 200.9,236.0 201.3,235.0 201.6,234.0 202.0,233.1 202.4,232.2 202.9,231.2 203.3,230.3 203.8,229.4 204.2,228.5 204.7,227.6 205.2,226.7 205.8,225.8 206.3,224.9 206.8,224.1 207.4,223.2 208.0,222.4 208.6,221.5 209.2,220.7 209.8,219.9 210.4,219.1 211.1,218.3 211.8,217.5 212.4,216.8 213.1,216.0 213.8,215.3 214.6,214.6 215.3,213.8 216.0,213.1 216.8,212.4 217.5,211.8 218.3,211.1 219.1,210.4 219.9,209.8 220.7,209.2 221.5,208.6 222.4,208.0 223.2,207.4 224.1,206.8 224.9,206.3 225.8,205.8 226.7,205.2 227.6,204.7 228.5,204.2 229.4,203.8 230.3,203.3 231.2,202.9 232.2,202.4 233.1,202.0 234.0,201.6 235.0,201.3 236.0,200.9 236.9,200.6 237.9,200.3 238.9,199.9 239.8,199.7 240.8,199.4 241.8,199.1 242.8,198.9 243.8,198.7 244.8,198.5 245.8,198.3 246.8,198.1 247.8,198.0 248.9,197.8 249.9,197.7 250.9,197.6 251.9,197.5 252.9,197.5 254.0,197.4 255.0,197.4 256.0,197.4 257.0,197.4 258.0,197.4 259.1,197.5 260.1,197.5 261.1,197.6 262.1,197.7 263.1,197.8 264.2,198.0 265.2,198.1 266.2,198.3 267.2,198.5 268.2,198.7 269.2,198.9 270.2,199.1 271.2,199.4 272.2,199.7 273.1,199.9 274.1,200.3 275.1,200.6 276.0,200.9 277.0,201.3 278.0,201.6 278.9,202.0 279.8,202.4 280.8,202.9 281.7,203.3 282.6,203.8 283.5,204.2 284.4,204.7 285.3,205.2 286.2,205.8 287.1,206.3 287.9,206.8 288.8,207.4 289.6,208.0 290.5,208.6 291.3,209.2 292.1,209.8 292.9,210.4 293.7,211.1 294.5,211.8 295.2,212.4 296.0,213.1 296.7,213.8 297.4,214.6 298.2,215.3 298.9,216.0 299.6,216.8 300.2,217.5 300.9,218.3 301.6,219.1 302.2,219.9 302.8,220.7 303.4,221.5 304.0,222.4 304.6,223.2 305.2,224.1 305.7,224.9 306.2,225.8 306.8,226.7 307.3,227.6 307.8,228.5 308.2,229.4 308.7,230.3 309.1,231.2 309.6,232.2 310.0,233.1 310.4,234.0 310.7,235.0 311.1,236.0 311.4,236.9 311.7,237.9 312.1,238.9 312.3,239.8 312.6,240.8 312.9,241.8 313.1,242.8 313.3,243.8 313.5,244.8 313.7,245.8 313.9,246.8 314.0,247.8 314.2,248.9 314.3,249.9 314.4,250.9 314.5,251.9 314.5,252.9 314.6,254.0 314.6,255.0" fill="none" stroke="rgba(255,255,255,0.9294117647058824)" stroke-width="2"/>
    <polygon points="339.9,256.0 339.9,257.5 339.9,258.9 339.8,260.4 339.7,261.9 339.6,263.3 339.4,264.8 339.3,266.2 339.1,267.7 338.9,269.1 338.6,270.6 338.4,272.0 338.1,273.4 337.8,274.9 337.4,276.3 337.0,277.7 336.7,279.1 336.2,280.5 335.8,281.9 335.3,283.3 334.8,284.7 334.3,286.1 333.8,287.4 333.2,288.8 332.7,290.1 332.0,291.5 331.4,292.8 330.8,294.1 330.1,295.4 329.4,296.7 328.7,298.0 327.9,299.2 327.2,300.5 326.4,301.7 325.6,302.9 324.7,304.1 323.9,305.3 323.0,306.5 322.1,307.7 321.2,308.8 320.3,309.9 319.3,311.0 318.4,312.1 317.4,313.2 316.4,314.3 315.3,315.3 314.3,316.4 313.2,317.4 312.1,318.4 311.0,319.3 309.9,320.3 308.8,321.2 307.7,322.1 306.5,323.0 305.3,323.9 304.1,324.7 302.9,325.6 301.7,326.4 300.5,327.2 299.2,327.9 298.0,328.7 296.7,329.4 295.4,330.1 294.1,330.8 292.8,331.4 291.5,332.0 290.1,332.7 288.8,333.2 287.4,333.8 286.1,334.3 284.7,334.8 283.3,335.3 281.9,335.8 280.5,336.2 279.1,336.7 277.7,337.0 276.3,337.4 274.9,337.8 273.4,338.1 272.0,338.4 270.6,338.6 269.1,338.9 267.7,339.1 266.2,339.3 264.8,339.4 263.3,339.6 261.9,339.7 260.4,339.8 258.9,339.9 257.5,339.9 256.0,339.9 254.5,339.9 253.1,339.9 251.6,339.8 250.1,339.7 248.7,339.6 247.2,339.4 245.8,339.3 244.3,339.1 242.9,338.9 241.4,338.6 240.0,338.4 238.6,338.1 237.1,337.8 235.7,337.4 234.3,337.0 232.9,336.7 231.5,336.2 230.1,335.8 228.7,335.3 227.3,334.8 225.9,334.3 224.6,333.8 223.2,333.2 221.9,332.7 220.5,332.0 219.2,331.4 217.9,330.8 216.6,330.1 215.3,329.4 214.0,328.7 212.8,327.9 211.5,327.2 210.3,326.4 209.1,325.6 207.9,324.7 206.7,323.9 205.5,323.0 204.3,322.1 203.2,321.2 202.1,320.3 201.0,319.3 199.9,318.4 198.8,317.4 197.7,316.4 196.7,315.3 195.6,314.3 194.6,313.2 193.6,312.1 192.7,311.0 191.7,309.9 190.8,308.8 189.9,307.7 189.0,306.5 188.1,305.3 187.3,304.1 186.4,302.9 185.6,301.7 184.8,300.5 184.1,299.2 183.3,298.0 182.6,296.7 181.9,295.4 181.2,294.1 180.6,292.8 180.0,291.5 179.3,290.1 178.8,288.8 178.2,287.4 177.7,286.1 177.2,284.7 176.7,283.3 176.2,281.9 175.8,280.5 175.3,279.1 175.0,277.7 174.6,276.3 174.2,274.9 173.9,273.4 173.6,272.0 173.4,270.6 173.1,269.1 172.9,267.7 172.7,266.2 172.6,264.8 172.4,263.3 172.3,261.9 172.2,260.4 172.1,258.9 172.1,257.5 172.1,256.0 172.1,254.5 172.1,253.1 172.2,251.6 172.3,250.1 172.4,248.7 172.6,247.2 172.7,245.8 172.9,244.3 173.1,242.9 173.4,241.4 173.6,240.0 173.9,238.6 174.2,237.1 174.6,235.7 175.0,234.3 175.3,232.9 175.8,231.5 176.2,230.1 176.7,228.7 177.2,227.3 177.7,225.9 178.2,224.6 178.8,223.2 179.3,221.9 180.0,220.5 180.6,219.2 181.2,217.9 181.9,216.6 182.6,215.3 183.3,214.0 184.1,212.8 184.8,211.5 185.6,210.3 186.4,209.1 187.3,207.9 188.1,206.7 189.0,205.5 189.9,204.3 190.8,203.2 191.7,202.1 192.7,201.0 193.6,199.9 194.6,198.8 195.6,197.7 196.7,196.7 197.7,195.6 198.8,194.6 199.9,193.6 201.0,192.7 202.1,191.7 203.2,190.8 204.3,189.9 205.5,189.0 206.7,188.1 207.9,187.3 209.1,186.4 210.3,185.6 211.5,184.8 212.8,184.1 214.0,183.3 215.3,182.6 216.6,181.9 217.9,181.2 219.2,180.6 220.5,180.0 221.9,179.3 223.2,178.8 224.6,178.2 225.9,177.7 227.3,177.2 228.7,176.7 230.1,176.2 231.5,175.8 232.9,175.3 234.3,175.0 235.7,174.6 237.1,174.2 238.6,173.9 240.0,173.6 241.4,173.4 242.9,173.1 244.3,172.9 245.8,172.7 247.2,172.6 248.7,172.4 250.1,172.3 251.6,172.2 253.1,172.1 254.5,172.1 256.0,172.1 257.5,172.1 258.9,172.1 260.4,172.2 261.9,172.3 263.3,172.4 264.8,172.6 266.2,172.7 267.7,172.9 269.1,173.1 270.6,173.4 272.0,173.6 273.4,173.9 274.9,174.2 276.3,174.6 277.7,175.0 279.1,175.3 280.5,175.8 281.9,176.2 283.3,176.7 284.7,177.2 286.1,177.7 287.4,178.2 288.8,178.8 290.1,179.3 291.5,180.0 292.8,180.6 294.1,181.2 295.4,181.9 296.7,182.6 298.0,183.3 299.2,184.1 300.5,184.8 301.7,185.6 302.9,186.4 304.1,187.3 305.3,188.1 306.5,189.0 307.7,189.9 308.8,190.8 309.9,191.7 311.0,192.7 312.1,193.6 313.2,194.6 314.3,195.6 315.3,196.7 316.4,197.7 317.4,198.8 318.4,199.9 319.3,201.0 320.3,202.1 321.2,203.2 322.1,204.3 323.0,205.5 323.9,206.7 324.7,207.9 325.6,209.1 326.4,210.3 327.2,211.5 327.9,212.8 328.7,214.0 329.4,215.3 330.1,216.6 330.8,217.9 331.4,219.2 332.0,220.5 332.7,221.9 333.2,223.2 333.8,224.6 334.3,225.9 334.8,227.3 335.3,228.7 335.8,230.1 336.2,231.5 336.7,232.9 337.0,234.3 337.4,235.7 337.8,237.1 338.1,238.6 338.4,240.0 338.6,241.4 338.9,242.9 339.1,244.3 339.3,245.8 339.4,247.2 339.6,248.7 339.7,250.1 339.8,251.6 339.9,253.1 339.9,254.5" fill="none" stroke="rgba(255,255,255,0.8588235294117647)" stroke-width="2"/>
    <polygon points="366.4,256.0 366.3,257.9 366.3,259.9 366.2,261.8 366.1,263.7 365.9,265.6 365.8,267.5 365.5,269.5 365.3,271.4 365.0,273.3 364.7,275.2 364.3,277.1 364.0,278.9 363.5,280.8 363.1,282.7 362.6,284.6 362.1,286.4 361.5,288.3 361.0,290.1 360.4,291.9 359.7,293.7 359.0,295.6 358.3,297.3 357.6,299.1 356.8,300.9 356.0,302.6 355.2,304.4 354.3,306.1 353.4,307.8 352.5,309.5 351.6,311.2 350.6,312.8 349.6,314.5 348.6,316.1 347.5,317.7 346.4,319.3 345.3,320.9 344.1,322.4 343.0,323.9 341.8,325.5 340.5,326.9 339.3,328.4 338.0,329.8 336.7,331.3 335.4,332.7 334.0,334.0 332.7,335.4 331.3,336.7 329.8,338.0 328.4,339.3 326.9,340.5 325.5,341.8 323.9,343.0 322.4,344.1 320.9,345.3 319.3,346.4 317.7,347.5 316.1,348.6 314.5,349.6 312.8,350.6 311.2,351.6 309.5,352.5 307.8,353.4 306.1,354.3 304.4,355.2 302.6,356.0 300.9,356.8 299.1,357.6 297.3,358.3 295.6,359.0 293.7,359.7 291.9,360.4 290.1,361.0 288.3,361.5 286.4,362.1 284.6,362.6 282.7,363.1 280.8,363.5 278.9,364.0 277.1,364.3 275.2,364.7 273.3,365.0 271.4,365.3 269.5,365.5 267.5,365.8 265.6,365.9 263.7,366.1 261.8,366.2 259.9,366.3 257.9,366.3 256.0,366.4 254.1,366.3 252.1,366.3 250.2,366.2 248.3,366.1 246.4,365.9 244.5,365.8 242.5,365.5 240.6,365.3 238.7,365.0 236.8,364.7 234.9,364.3 233.1,364.0 231.2,363.5 229.3,363.1 227.4,362.6 225.6,362.1 223.7,361.5 221.9,361.0 220.1,360.4 218.3,359.7 216.4,359.0 214.7,358.3 212.9,357.6 211.1,356.8 209.4,356.0 207.6,355.2 205.9,354.3 204.2,353.4 202.5,352.5 200.8,351.6 199.2,350.6 197.5,349.6 195.9,348.6 194.3,347.5 192.7,346.4 191.1,345.3 189.6,344.1 188.1,343.0 186.5,341.8 185.1,340.5 183.6,339.3 182.2,338.0 180.7,336.7 179.3,335.4 178.0,334.0 176.6,332.7 175.3,331.3 174.0,329.8 172.7,328.4 171.5,326.9 170.2,325.5 169.0,323.9 167.9,322.4 166.7,320.9 165.6,319.3 164.5,317.7 163.4,316.1 162.4,314.5 161.4,312.8 160.4,311.2 159.5,309.5 158.6,307.8 157.7,306.1 156.8,304.4 156.0,302.6 155.2,300.9 154.4,299.1 153.7,297.3 153.0,295.6 152.3,293.7 151.6,291.9 151.0,290.1 150.5,288.3 149.9,286.4 149.4,284.6 148.9,282.7 148.5,280.8 148.0,278.9 147.7,277.1 147.3,275.2 147.0,273.3 146.7,271.4 146.5,269.5 146.2,267.5 146.1,265.6 145.9,263.7 145.8,261.8 145.7,259.9 145.7,257.9 145.6,256.0 145.7,254.1 145.7,252.1 145.8,250.2 145.9,248.3 146.1,246.4 146.2,244.5 146.5,242.5 146.7,240.6 147.0,238.7 147.3,236.8 147.7,234.9 148.0,233.1 148.5,231.2 148.9,229.3 149.4,227.4 149.9,225.6 150.5,223.7 151.0,221.9 151.6,220.1 152.3,218.3 153.0,216.4 153.7,214.7 154.4,212.9 155.2,211.1 156.0,209.4 156.8,207.6 157.7,205.9 158.6,204.2 159.5,202.5 160.4,200.8 161.4,199.2 162.4,197.5 163.4,195.9 164.5,194.3 165.6,192.7 166.7,191.1 167.9,189.6 169.0,188.1 170.2,186.5 171.5,185.1 172.7,183.6 174.0,182.2 175.3,180.7 176.6,179.3 178.0,178.0 179.3,176.6 180.7,175.3 182.2,174.0 183.6,172.7 185.1,171.5 186.5,170.2 188.1,169.0 189.6,167.9 191.1,166.7 192.7,165.6 194.3,164.5 195.9,163.4 197.5,162.4 199.2,161.4 200.8,160.4 202.5,159.5 204.2,158.6 205.9,157.7 207.6,156.8 209.4,156.0 211.1,155.2 212.9,154.4 214.7,153.7 216.4,153.0 218.3,152.3 220.1,151.6 221.9,151.0 223.7,150.5 225.6,149.9 227.4,149.4 229.3,148.9 231.2,148.5 233.1,148.0 234.9,147.7 236.8,147.3 238.7,147.0 240.6,146.7 242.5,146.5 244.5,146.2 246.4,146.1 248.3,145.9 250.2,145.8 252.1,145.7 254.1,145.7 256.0,145.6 257.9,145.7 259.9,145.7 261.8,145.8 263.7,145.9 265.6,146.1 267.5,146.2 269.5,146.5 271.4,146.7 273.3,147.0 275.2,147.3 277.1,147.7 278.9,148.0 280.8,148.5 282.7,148.9 284.6,149.4 286.4,149.9 288.3,150.5 290.1,151.0 291.9,151.6 293.7,152.3 295.6,153.0 297.3,153.7 299.1,154.4 300.9,155.2 302.6,156.0 304.4,156.8 306.1,157.7 307.8,158.6 309.5,159.5 311.2,160.4 312.8,161.4 314.5,162.4 316.1,163.4 317.7,164.5 319.3,165.6 320.9,166.7 322.4,167.9 323.9,169.0 325.5,170.2 326.9,171.5 328.4,172.7 329.8,174.0 331.3,175.3 332.7,176.6 334.0,178.0 335.4,179.3 336.7,180.7 338.0,182.2 339.3,183.6 340.5,185.1 341.8,186.5 343.0,188.1 344.1,189.6 345.3,191.1 346.4,192.7 347.5,194.3 348.6,195.9 349.6,197.5 350.6,199.2 351.6,200.8 352.5,202.5 353.4,204.2 354.3,205.9 355.2,207.6 356.0,209.4 356.8,211.1 357.6,212.9 358.3,214.7 359.0,216.4 359.7,218.3 360.4,220.1 361.0,221.9 361.5,223.7 362.1,225.6 362.6,227.4 363.1,229.3 363.5,231.2 364.0,233.1 364.3,234.9 364.7,236.8 365.0,238.7 365.3,240.6 365.5,242.5 365.8,244.5 365.9,246.4 366.1,248.3 366.2,250.2 366.3,252.1 366.3,254.1" fill="none" stroke="rgba(255,255,255,0.788235294117647)" stroke-width="2"/>
    <polygon points="394.3,256.0 394.3,258.4 394.3,260.8 394.2,263.2 394.0,265.7 393.8,268.1 393.6,270.5 393.3,272.9 393.0,275.3 392.6,277.6 392.2,280.0 391.8,282.4 391.3,284.8 390.8,287.1 390.2,289.5 389.6,291.8 389.0,294.1 388.3,296.4 387.6,298.8 386.8,301.0 386.0,303.3 385.2,305.6 384.3,307.8 383.3,310.1 382.4,312.3 381.4,314.5 380.3,316.6 379.3,318.8 378.2,320.9 377.0,323.1 375.8,325.2 374.6,327.3 373.3,329.3 372.0,331.3 370.7,333.4 369.3,335.4 367.9,337.3 366.5,339.3 365.0,341.2 363.5,343.1 362.0,344.9 360.4,346.8 358.8,348.6 357.2,350.4 355.5,352.1 353.8,353.8 352.1,355.5 350.4,357.2 348.6,358.8 346.8,360.4 344.9,362.0 343.1,363.5 341.2,365.0 339.3,366.5 337.3,367.9 335.4,369.3 333.4,370.7 331.3,372.0 329.3,373.3 327.3,374.6 325.2,375.8 323.1,377.0 320.9,378.2 318.8,379.3 316.6,380.3 314.5,381.4 312.3,382.4 310.1,383.3 307.8,384.3 305.6,385.2 303.3,386.0 301.0,386.8 298.8,387.6 296.4,388.3 294.1,389.0 291.8,389.6 289.5,390.2 287.1,390.8 284.8,391.3 282.4,391.8 280.0,392.2 277.6,392.6 275.3,393.0 272.9,393.3 270.5,393.6 268.1,393.8 265.7,394.0 263.2,394.2 260.8,394.3 258.4,394.3 256.0,394.3 253.6,394.3 251.2,394.3 248.8,394.2 246.3,394.0 243.9,393.8 241.5,393.6 239.1,393.3 236.7,393.0 234.4,392.6 232.0,392.2 229.6,391.8 227.2,391.3 224.9,390.8 222.5,390.2 220.2,389.6 217.9,389.0 215.6,388.3 213.2,387.6 211.0,386.8 208.7,386.0 206.4,385.2 204.2,384.3 201.9,383.3 199.7,382.4 197.5,381.4 195.4,380.3 193.2,379.3 191.1,378.2 188.9,377.0 186.8,375.8 184.7,374.6 182.7,373.3 180.7,372.0 178.6,370.7 176.6,369.3 174.7,367.9 172.7,366.5 170.8,365.0 168.9,363.5 167.1,362.0 165.2,360.4 163.4,358.8 161.6,357.2 159.9,355.5 158.2,353.8 156.5,352.1 154.8,350.4 153.2,348.6 151.6,346.8 150.0,344.9 148.5,343.1 147.0,341.2 145.5,339.3 144.1,337.3 142.7,335.4 141.3,333.4 140.0,331.3 138.7,329.3 137.4,327.3 136.2,325.2 135.0,323.1 133.8,320.9 132.7,318.8 131.7,316.6 130.6,314.5 129.6,312.3 128.7,310.1 127.7,307.8 126.8,305.6 126.0,303.3 125.2,301.0 124.4,298.8 123.7,296.4 123.0,294.1 122.4,291.8 121.8,289.5 121.2,287.1 120.7,284.8 120.2,282.4 119.8,280.0 119.4,277.6 119.0,275.3 118.7,272.9 118.4,270.5 118.2,268.1 118.0,265.7 117.8,263.2 117.7,260.8 117.7,258.4 117.7,256.0 117.7,253.6 117.7,251.2 117.8,248.8 118.0,246.3 118.2,243.9 118.4,241.5 118.7,239.1 119.0,236.7 119.4,234.4 119.8,232.0 120.2,229.6 120.7,227.2 121.2,224.9 121.8,222.5 122.4,220.2 123.0,217.9 123.7,215.6 124.4,213.2 125.2,211.0 126.0,208.7 126.8,206.4 127.7,204.2 128.7,201.9 129.6,199.7 130.6,197.5 131.7,195.4 132.7,193.2 133.8,191.1 135.0,188.9 136.2,186.8 137.4,184.7 138.7,182.7 140.0,180.7 141.3,178.6 142.7,176.6 144.1,174.7 145.5,172.7 147.0,170.8 148.5,168.9 150.0,167.1 151.6,165.2 153.2,163.4 154.8,161.6 156.5,159.9 158.2,158.2 159.9,156.5 161.6,154.8 163.4,153.2 165.2,151.6 167.1,150.0 168.9,148.5 170.8,147.0 172.7,145.5 174.7,144.1 176.6,142.7 178.6,141.3 180.7,140.0 182.7,138.7 184.7,137.4 186.8,136.2 188.9,135.0 191.1,133.8 193.2,132.7 195.4,131.7 197.5,130.6 199.7,129.6 201.9,128.7 204.2,127.7 206.4,126.8 208.7,126.0 211.0,125.2 213.2,124.4 215.6,123.7 217.9,123.0 220.2,122.4 222.5,121.8 224.9,121.2 227.2,120.7 229.6,120.2 232.0,119.8 234.4,119.4 236.7,119.0 239.1,118.7 241.5,118.4 243.9,118.2 246.3,118.0 248.8,117.8 251.2,117.7 253.6,117.7 256.0,117.7 258.4,117.7 260.8,117.7 263.2,117.8 265.7,118.0 268.1,118.2 270.5,118.4 272.9,118.7 275.3,119.0 277.6,119.4 280.0,119.8 282.4,120.2 284.8,120.7 287.1,121.2 289.5,121.8 291.8,122.4 294.1,123.0 296.4,123.7 298.8,124.4 301.0,125.2 303.3,126.0 305.6,126.8 307.8,127.7 310.1,128.7 312.3,129.6 314.5,130.6 316.6,131.7 318.8,132.7 320.9,133.8 323.1,135.0 325.2,136.2 327.3,137.4 329.3,138.7 331.3,140.0 333.4,141.3 335.4,142.7 337.3,144.1 339.3,145.5 341.2,147.0 343.1,148.5 344.9,150.0 346.8,151.6 348.6,153.2 350.4,154.8 352.1,156.5 353.8,158.2 355.5,159.9 357.2,161.6 358.8,163.4 360.4,165.2 362.0,167.1 363.5,168.9 365.0,170.8 366.5,172.7 367.9,174.7 369.3,176.6 370.7,178.6 372.0,180.7 373.3,182.7 374.6,184.7 375.8,186.8 377.0,188.9 378.2,191.1 379.3,193.2 380.3,195.4 381.4,197.5 382.4,199.7 383.3,201.9 384.3,204.2 385.2,206.4 386.0,208.7 386.8,211.0 387.6,213.2 388.3,215.6 389.0,217.9 389.6,220.2 390.2,222.5 390.8,224.9 391.3,227.2 391.8,229.6 392.2,232.0 392.6,234.4 393.0,236.7 393.3,239.1 393.6,241.5 393.8,243.9 394.0,246.3 394.2,248.8 394.3,251.2 394.3,253.6" fill="none" stroke="rgba(255,255,255,0.7176470588235294)" stroke-width="2"/>
    <polygon points="424.2,256.0 424.2,258.9 424.1,261.9 424.0,264.8 423.8,267.7 423.5,270.7 423.3,273.6 422.9,276.5 422.6,279.4 422.1,282.3 421.6,285.2 421.1,288.1 420.5,291.0 419.9,293.8 419.2,296.7 418.5,299.5 417.7,302.4 416.8,305.2 416.0,308.0 415.0,310.8 414.0,313.5 413.0,316.3 411.9,319.0 410.8,321.7 409.6,324.4 408.4,327.1 407.2,329.7 405.9,332.4 404.5,335.0 403.1,337.5 401.7,340.1 400.2,342.6 398.6,345.1 397.1,347.6 395.4,350.0 393.8,352.5 392.1,354.9 390.3,357.2 388.5,359.5 386.7,361.8 384.8,364.1 382.9,366.3 381.0,368.5 379.0,370.7 377.0,372.8 374.9,374.9 372.8,377.0 370.7,379.0 368.5,381.0 366.3,382.9 364.1,384.8 361.8,386.7 359.5,388.5 357.2,390.3 354.9,392.1 352.5,393.8 350.0,395.4 347.6,397.1 345.1,398.6 342.6,400.2 340.1,401.7 337.5,403.1 335.0,404.5 332.4,405.9 329.7,407.2 327.1,408.4 324.4,409.6 321.7,410.8 319.0,411.9 316.3,413.0 313.5,414.0 310.8,415.0 308.0,416.0 305.2,416.8 302.4,417.7 299.5,418.5 296.7,419.2 293.8,419.9 291.0,420.5 288.1,421.1 285.2,421.6 282.3,422.1 279.4,422.6 276.5,422.9 273.6,423.3 270.7,423.5 267.7,423.8 264.8,424.0 261.9,424.1 258.9,424.2 256.0,424.2 253.1,424.2 250.1,424.1 247.2,424.0 244.3,423.8 241.3,423.5 238.4,423.3 235.5,422.9 232.6,422.6 229.7,422.1 226.8,421.6 223.9,421.1 221.0,420.5 218.2,419.9 215.3,419.2 212.5,418.5 209.6,417.7 206.8,416.8 204.0,416.0 201.2,415.0 198.5,414.0 195.7,413.0 193.0,411.9 190.3,410.8 187.6,409.6 184.9,408.4 182.3,407.2 179.6,405.9 177.0,404.5 174.5,403.1 171.9,401.7 169.4,400.2 166.9,398.6 164.4,397.1 162.0,395.4 159.5,393.8 157.1,392.1 154.8,390.3 152.5,388.5 150.2,386.7 147.9,384.8 145.7,382.9 143.5,381.0 141.3,379.0 139.2,377.0 137.1,374.9 135.0,372.8 133.0,370.7 131.0,368.5 129.1,366.3 127.2,364.1 125.3,361.8 123.5,359.5 121.7,357.2 119.9,354.9 118.2,352.5 116.6,350.0 114.9,347.6 113.4,345.1 111.8,342.6 110.3,340.1 108.9,337.5 107.5,335.0 106.1,332.4 104.8,329.7 103.6,327.1 102.4,324.4 101.2,321.7 100.1,319.0 99.0,316.3 98.0,313.5 97.0,310.8 96.0,308.0 95.2,305.2 94.3,302.4 93.5,299.5 92.8,296.7 92.1,293.8 91.5,291.0 90.9,288.1 90.4,285.2 89.9,282.3 89.4,279.4 89.1,276.5 88.7,273.6 88.5,270.7 88.2,267.7 88.0,264.8 87.9,261.9 87.8,258.9 87.8,256.0 87.8,253.1 87.9,250.1 88.0,247.2 88.2,244.3 88.5,241.3 88.7,238.4 89.1,235.5 89.4,232.6 89.9,229.7 90.4,226.8 90.9,223.9 91.5,221.0 92.1,218.2 92.8,215.3 93.5,212.5 94.3,209.6 95.2,206.8 96.0,204.0 97.0,201.2 98.0,198.5 99.0,195.7 100.1,193.0 101.2,190.3 102.4,187.6 103.6,184.9 104.8,182.3 106.1,179.6 107.5,177.0 108.9,174.5 110.3,171.9 111.8,169.4 113.4,166.9 114.9,164.4 116.6,162.0 118.2,159.5 119.9,157.1 121.7,154.8 123.5,152.5 125.3,150.2 127.2,147.9 129.1,145.7 131.0,143.5 133.0,141.3 135.0,139.2 137.1,137.1 139.2,135.0 141.3,133.0 143.5,131.0 145.7,129.1 147.9,127.2 150.2,125.3 152.5,123.5 154.8,121.7 157.1,119.9 159.5,118.2 162.0,116.6 164.4,114.9 166.9,113.4 169.4,111.8 171.9,110.3 174.5,108.9 177.0,107.5 179.6,106.1 182.3,104.8 184.9,103.6 187.6,102.4 190.3,101.2 193.0,100.1 195.7,99.0 198.5,98.0 201.2,97.0 204.0,96.0 206.8,95.2 209.6,94.3 212.5,93.5 215.3,92.8 218.2,92.1 221.0,91.5 223.9,90.9 226.8,90.4 229.7,89.9 232.6,89.4 235.5,89.1 238.4,88.7 241.3,88.5 244.3,88.2 247.2,88.0 250.1,87.9 253.1,87.8 256.0,87.8 258.9,87.8 261.9,87.9 264.8,88.0 267.7,88.2 270.7,88.5 273.6,88.7 276.5,89.1 279.4,89.4 282.3,89.9 285.2,90.4 288.1,90.9 291.0,91.5 293.8,92.1 296.7,92.8 299.5,93.5 302.4,94.3 305.2,95.2 308.0,96.0 310.8,97.0 313.5,98.0 316.3,99.0 319.0,100.1 321.7,101.2 324.4,102.4 327.1,103.6 329.7,104.8 332.4,106.1 335.0,107.5 337.5,108.9 340.1,110.3 342.6,111.8 345.1,113.4 347.6,114.9 350.0,116.6 352.5,118.2 354.9,119.9 357.2,121.7 359.5,123.5 361.8,125.3 364.1,127.2 366.3,129.1 368.5,131.0 370.7,133.0 372.8,135.0 374.9,137.1 377.0,139.2 379.0,141.3 381.0,143.5 382.9,145.7 384.8,147.9 386.7,150.2 388.5,152.5 390.3,154.8 392.1,157.1 393.8,159.5 395.4,162.0 397.1,164.4 398.6,166.9 400.2,169.4 401.7,171.9 403.1,174.5 404.5,177.0 405.9,179.6 407.2,182.3 408.4,184.9 409.6,187.6 410.8,190.3 411.9,193.0 413.0,195.7 414.0,198.5 415.0,201.2 416.0,204.0 416.8,206.8 417.7,209.6 418.5,212.5 419.2,215.3 419.9,218.2 420.5,221.0 421.1,223.9 421.6,226.8 422.1,229.7 422.6,232.6 422.9,235.5 423.3,238.4 423.5,241.3 423.8,244.3 424.0,247.2 424.1,250.1 424.2,253.1" fill="none" stroke="rgba(255,255,255,0.6470588235294118)" stroke-width="2"/>
    <polygon points="456.2,256.0 456.2,259.5 456.1,263.0 456.0,266.5 455.7,270.0 455.5,273.5 455.1,276.9 454.7,280.4 454.3,283.9 453.8,287.3 453.2,290.8 452.6,294.2 451.9,297.6 451.1,301.0 450.3,304.4 449.4,307.8 448.5,311.2 447.5,314.5 446.4,317.9 445.3,321.2 444.2,324.5 442.9,327.8 441.7,331.0 440.3,334.2 438.9,337.4 437.5,340.6 436.0,343.8 434.4,346.9 432.8,350.0 431.1,353.1 429.4,356.1 427.6,359.1 425.8,362.1 423.9,365.1 422.0,368.0 420.0,370.8 418.0,373.7 415.9,376.5 413.8,379.3 411.6,382.0 409.4,384.7 407.1,387.4 404.8,390.0 402.4,392.6 400.0,395.1 397.6,397.6 395.1,400.0 392.6,402.4 390.0,404.8 387.4,407.1 384.7,409.4 382.0,411.6 379.3,413.8 376.5,415.9 373.7,418.0 370.8,420.0 368.0,422.0 365.1,423.9 362.1,425.8 359.1,427.6 356.1,429.4 353.1,431.1 350.0,432.8 346.9,434.4 343.8,436.0 340.6,437.5 337.4,438.9 334.2,440.3 331.0,441.7 327.8,442.9 324.5,444.2 321.2,445.3 317.9,446.4 314.5,447.5 311.2,448.5 307.8,449.4 304.4,450.3 301.0,451.1 297.6,451.9 294.2,452.6 290.8,453.2 287.3,453.8 283.9,454.3 280.4,454.7 276.9,455.1 273.5,455.5 270.0,455.7 266.5,456.0 263.0,456.1 259.5,456.2 256.0,456.2 252.5,456.2 249.0,456.1 245.5,456.0 242.0,455.7 238.5,455.5 235.1,455.1 231.6,454.7 228.1,454.3 224.7,453.8 221.2,453.2 217.8,452.6 214.4,451.9 211.0,451.1 207.6,450.3 204.2,449.4 200.8,448.5 197.5,447.5 194.1,446.4 190.8,445.3 187.5,444.2 184.2,442.9 181.0,441.7 177.8,440.3 174.6,438.9 171.4,437.5 168.2,436.0 165.1,434.4 162.0,432.8 158.9,431.1 155.9,429.4 152.9,427.6 149.9,425.8 146.9,423.9 144.0,422.0 141.2,420.0 138.3,418.0 135.5,415.9 132.7,413.8 130.0,411.6 127.3,409.4 124.6,407.1 122.0,404.8 119.4,402.4 116.9,400.0 114.4,397.6 112.0,395.1 109.6,392.6 107.2,390.0 104.9,387.4 102.6,384.7 100.4,382.0 98.2,379.3 96.1,376.5 94.0,373.7 92.0,370.8 90.0,368.0 88.1,365.1 86.2,362.1 84.4,359.1 82.6,356.1 80.9,353.1 79.2,350.0 77.6,346.9 76.0,343.8 74.5,340.6 73.1,337.4 71.7,334.2 70.3,331.0 69.1,327.8 67.8,324.5 66.7,321.2 65.6,317.9 64.5,314.5 63.5,311.2 62.6,307.8 61.7,304.4 60.9,301.0 60.1,297.6 59.4,294.2 58.8,290.8 58.2,287.3 57.7,283.9 57.3,280.4 56.9,276.9 56.5,273.5 56.3,270.0 56.0,266.5 55.9,263.0 55.8,259.5 55.8,256.0 55.8,252.5 55.9,249.0 56.0,245.5 56.3,242.0 56.5,238.5 56.9,235.1 57.3,231.6 57.7,228.1 58.2,224.7 58.8,221.2 59.4,217.8 60.1,214.4 60.9,211.0 61.7,207.6 62.6,204.2 63.5,200.8 64.5,197.5 65.6,194.1 66.7,190.8 67.8,187.5 69.1,184.2 70.3,181.0 71.7,177.8 73.1,174.6 74.5,171.4 76.0,168.2 77.6,165.1 79.2,162.0 80.9,158.9 82.6,155.9 84.4,152.9 86.2,149.9 88.1,146.9 90.0,144.0 92.0,141.2 94.0,138.3 96.1,135.5 98.2,132.7 100.4,130.0 102.6,127.3 104.9,124.6 107.2,122.0 109.6,119.4 112.0,116.9 114.4,114.4 116.9,112.0 119.4,109.6 122.0,107.2 124.6,104.9 127.3,102.6 130.0,100.4 132.7,98.2 135.5,96.1 138.3,94.0 141.2,92.0 144.0,90.0 146.9,88.1 149.9,86.2 152.9,84.4 155.9,82.6 158.9,80.9 162.0,79.2 165.1,77.6 168.2,76.0 171.4,74.5 174.6,73.1 177.8,71.7 181.0,70.3 184.2,69.1 187.5,67.8 190.8,66.7 194.1,65.6 197.5,64.5 200.8,63.5 204.2,62.6 207.6,61.7 211.0,60.9 214.4,60.1 217.8,59.4 221.2,58.8 224.7,58.2 228.1,57.7 231.6,57.3 235.1,56.9 238.5,56.5 242.0,56.3 245.5,56.0 249.0,55.9 252.5,55.8 256.0,55.8 259.5,55.8 263.0,55.9 266.5,56.0 270.0,56.3 273.5,56.5 276.9,56.9 280.4,57.3 283.9,57.7 287.3,58.2 290.8,58.8 294.2,59.4 297.6,60.1 301.0,60.9 304.4,61.7 307.8,62.6 311.2,63.5 314.5,64.5 317.9,65.6 321.2,66.7 324.5,67.8 327.8,69.1 331.0,70.3 334.2,71.7 337.4,73.1 340.6,74.5 343.8,76.0 346.9,77.6 350.0,79.2 353.1,80.9 356.1,82.6 359.1,84.4 362.1,86.2 365.1,88.1 368.0,90.0 370.8,92.0 373.7,94.0 376.5,96.1 379.3,98.2 382.0,100.4 384.7,102.6 387.4,104.9 390.0,107.2 392.6,109.6 395.1,112.0 397.6,114.4 400.0,116.9 402.4,119.4 404.8,122.0 407.1,124.6 409.4,127.3 411.6,130.0 413.8,132.7 415.9,135.5 418.0,138.3 420.0,141.2 422.0,144.0 423.9,146.9 425.8,149.9 427.6,152.9 429.4,155.9 431.1,158.9 432.8,162.0 434.4,165.1 436.0,168.2 437.5,171.4 438.9,174.6 440.3,177.8 441.7,181.0 442.9,184.2 444.2,187.5 445.3,190.8 446.4,194.1 447.5,197.5 448.5,200.8 449.4,204.2 450.3,207.6 451.1,211.0 451.9,214.4 452.6,217.8 453.2,221.2 453.8,224.7 454.3,228.1 454.7,231.6 455.1,235.1 455.5,238.5 455.7,242.0 456.0,245.5 456.1,249.0 456.2,252.5" fill="none" stroke="rgba(255,255,255,0.5764705882352941)" stroke-width="2"/>
    <polygon points="490.8,256.0 490.8,260.1 490.7,264.2 490.5,268.3 490.3,272.4 489.9,276.5 489.5,280.5 489.1,284.6 488.5,288.7 487.9,292.7 487.3,296.8 486.5,300.8 485.7,304.8 484.8,308.8 483.9,312.8 482.8,316.8 481.7,320.7 480.6,324.7 479.3,328.6 478.0,332.5 476.7,336.3 475.2,340.2 473.7,344.0 472.2,347.8 470.5,351.5 468.8,355.2 467.1,358.9 465.2,362.6 463.3,366.2 461.4,369.8 459.4,373.4 457.3,376.9 455.1,380.4 452.9,383.9 450.7,387.3 448.4,390.7 446.0,394.0 443.5,397.3 441.0,400.6 438.5,403.8 435.9,406.9 433.2,410.1 430.5,413.1 427.7,416.2 424.9,419.1 422.0,422.0 419.1,424.9 416.2,427.7 413.1,430.5 410.1,433.2 406.9,435.9 403.8,438.5 400.6,441.0 397.3,443.5 394.0,446.0 390.7,448.4 387.3,450.7 383.9,452.9 380.4,455.1 376.9,457.3 373.4,459.4 369.8,461.4 366.2,463.3 362.6,465.2 358.9,467.1 355.2,468.8 351.5,470.5 347.8,472.2 344.0,473.7 340.2,475.2 336.3,476.7 332.5,478.0 328.6,479.3 324.7,480.6 320.7,481.7 316.8,482.8 312.8,483.9 308.8,484.8 304.8,485.7 300.8,486.5 296.8,487.3 292.7,487.9 288.7,488.5 284.6,489.1 280.5,489.5 276.5,489.9 272.4,490.3 268.3,490.5 264.2,490.7 260.1,490.8 256.0,490.8 251.9,490.8 247.8,490.7 243.7,490.5 239.6,490.3 235.5,489.9 231.5,489.5 227.4,489.1 223.3,488.5 219.3,487.9 215.2,487.3 211.2,486.5 207.2,485.7 203.2,484.8 199.2,483.9 195.2,482.8 191.3,481.7 187.3,480.6 183.4,479.3 179.5,478.0 175.7,476.7 171.8,475.2 168.0,473.7 164.2,472.2 160.5,470.5 156.8,468.8 153.1,467.1 149.4,465.2 145.8,463.3 142.2,461.4 138.6,459.4 135.1,457.3 131.6,455.1 128.1,452.9 124.7,450.7 121.3,448.4 118.0,446.0 114.7,443.5 111.4,441.0 108.2,438.5 105.1,435.9 101.9,433.2 98.9,430.5 95.8,427.7 92.9,424.9 90.0,422.0 87.1,419.1 84.3,416.2 81.5,413.1 78.8,410.1 76.1,406.9 73.5,403.8 71.0,400.6 68.5,397.3 66.0,394.0 63.6,390.7 61.3,387.3 59.1,383.9 56.9,380.4 54.7,376.9 52.6,373.4 50.6,369.8 48.7,366.2 46.8,362.6 44.9,358.9 43.2,355.2 41.5,351.5 39.8,347.8 38.3,344.0 36.8,340.2 35.3,336.3 34.0,332.5 32.7,328.6 31.4,324.7 30.3,320.7 29.2,316.8 28.1,312.8 27.2,308.8 26.3,304.8 25.5,300.8 24.7,296.8 24.1,292.7 23.5,288.7 22.9,284.6 22.5,280.5 22.1,276.5 21.7,272.4 21.5,268.3 21.3,264.2 21.2,260.1 21.2,256.0 21.2,251.9 21.3,247.8 21.5,243.7 21.7,239.6 22.1,235.5 22.5,231.5 22.9,227.4 23.5,223.3 24.1,219.3 24.7,215.2 25.5,211.2 26.3,207.2 27.2,203.2 28.1,199.2 29.2,195.2 30.3,191.3 31.4,187.3 32.7,183.4 34.0,179.5 35.3,175.7 36.8,171.8 38.3,168.0 39.8,164.2 41.5,160.5 43.2,156.8 44.9,153.1 46.8,149.4 48.7,145.8 50.6,142.2 52.6,138.6 54.7,135.1 56.9,131.6 59.1,128.1 61.3,124.7 63.6,121.3 66.0,118.0 68.5,114.7 71.0,111.4 73.5,108.2 76.1,105.1 78.8,101.9 81.5,98.9 84.3,95.8 87.1,92.9 90.0,90.0 92.9,87.1 95.8,84.3 98.9,81.5 101.9,78.8 105.1,76.1 108.2,73.5 111.4,71.0 114.7,68.5 118.0,66.0 121.3,63.6 124.7,61.3 128.1,59.1 131.6,56.9 135.1,54.7 138.6,52.6 142.2,50.6 145.8,48.7 149.4,46.8 153.1,44.9 156.8,43.2 160.5,41.5 164.2,39.8 168.0,38.3 171.8,36.8 175.7,35.3 179.5,34.0 183.4,32.7 187.3,31.4 191.3,30.3 195.2,29.2 199.2,28.1 203.2,27.2 207.2,26.3 211.2,25.5 215.2,24.7 219.3,24.1 223.3,23.5 227.4,22.9 231.5,22.5 235.5,22.1 239.6,21.7 243.7,21.5 247.8,21.3 251.9,21.2 256.0,21.2 260.1,21.2 264.2,21.3 268.3,21.5 272.4,21.7 276.5,22.1 280.5,22.5 284.6,22.9 288.7,23.5 292.7,24.1 296.8,24.7 300.8,25.5 304.8,26.3 308.8,27.2 312.8,28.1 316.8,29.2 320.7,30.3 324.7,31.4 328.6,32.7 332.5,34.0 336.3,35.3 340.2,36.8 344.0,38.3 347.8,39.8 351.5,41.5 355.2,43.2 358.9,44.9 362.6,46.8 366.2,48.7 369.8,50.6 373.4,52.6 376.9,54.7 380.4,56.9 383.9,59.1 387.3,61.3 390.7,63.6 394.0,66.0 397.3,68.5 400.6,71.0 403.8,73.5 406.9,76.1 410.1,78.8 413.1,81.5 416.2,84.3 419.1,87.1 422.0,90.0 424.9,92.9 427.7,95.8 430.5,98.9 433.2,101.9 435.9,105.1 438.5,108.2 441.0,111.4 443.5,114.7 446.0,118.0 448.4,121.3 450.7,124.7 452.9,128.1 455.1,131.6 457.3,135.1 459.4,138.6 461.4,142.2 463.3,145.8 465.2,149.4 467.1,153.1 468.8,156.8 470.5,160.5 472.2,164.2 473.7,168.0 475.2,171.8 476.7,175.7 478.0,179.5 479.3,183.4 480.6,187.3 481.7,191.3 482.8,195.2 483.9,199.2 484.8,203.2 485.7,207.2 486.5,211.2 487.3,215.2 487.9,219.3 488.5,223.3 489.1,227.4 489.5,231.5 489.9,235.5 490.3,239.6 490.5,243.7 490.7,247.8 490.8,251.9" fill="none" stroke="rgba(255,255,255,0.5058823529411764)" stroke-width="2"/>
    <polygon points="520.0,256.0 520.0,260.6 519.8,265.2 519.6,269.8 519.4,274.4 519.0,279.0 518.6,283.6 518.0,288.2 517.4,292.7 516.7,297.3 516.0,301.8 515.1,306.4 514.2,310.9 513.2,315.4 512.2,319.9 511.0,324.3 509.8,328.8 508.5,333.2 507.1,337.6 505.6,341.9 504.1,346.3 502.5,350.6 500.8,354.9 499.0,359.2 497.2,363.4 495.3,367.6 493.3,371.7 491.2,375.9 489.1,379.9 486.9,384.0 484.6,388.0 482.3,392.0 479.9,395.9 477.4,399.8 474.9,403.6 472.3,407.4 469.6,411.2 466.8,414.9 464.0,418.5 461.2,422.1 458.2,425.7 455.2,429.2 452.2,432.7 449.1,436.0 445.9,439.4 442.7,442.7 439.4,445.9 436.0,449.1 432.7,452.2 429.2,455.2 425.7,458.2 422.1,461.2 418.5,464.0 414.9,466.8 411.2,469.6 407.4,472.3 403.6,474.9 399.8,477.4 395.9,479.9 392.0,482.3 388.0,484.6 384.0,486.9 379.9,489.1 375.9,491.2 371.7,493.3 367.6,495.3 363.4,497.2 359.2,499.0 354.9,500.8 350.6,502.5 346.3,504.1 341.9,505.6 337.6,507.1 333.2,508.5 328.8,509.8 324.3,511.0 319.9,512.2 315.4,513.2 310.9,514.2 306.4,515.1 301.8,516.0 297.3,516.7 292.7,517.4 288.2,518.0 283.6,518.6 279.0,519.0 274.4,519.4 269.8,519.6 265.2,519.8 260.6,520.0 256.0,520.0 251.4,520.0 246.8,519.8 242.2,519.6 237.6,519.4 233.0,519.0 228.4,518.6 223.8,518.0 219.3,517.4 214.7,516.7 210.2,516.0 205.6,515.1 201.1,514.2 196.6,513.2 192.1,512.2 187.7,511.0 183.2,509.8 178.8,508.5 174.4,507.1 170.1,505.6 165.7,504.1 161.4,502.5 157.1,500.8 152.8,499.0 148.6,497.2 144.4,495.3 140.3,493.3 136.1,491.2 132.1,489.1 128.0,486.9 124.0,484.6 120.0,482.3 116.1,479.9 112.2,477.4 108.4,474.9 104.6,472.3 100.8,469.6 97.1,466.8 93.5,464.0 89.9,461.2 86.3,458.2 82.8,455.2 79.3,452.2 76.0,449.1 72.6,445.9 69.3,442.7 66.1,439.4 62.9,436.0 59.8,432.7 56.8,429.2 53.8,425.7 50.8,422.1 48.0,418.5 45.2,414.9 42.4,411.2 39.7,407.4 37.1,403.6 34.6,399.8 32.1,395.9 29.7,392.0 27.4,388.0 25.1,384.0 22.9,379.9 20.8,375.9 18.7,371.7 16.7,367.6 14.8,363.4 13.0,359.2 11.2,354.9 9.5,350.6 7.9,346.3 6.4,341.9 4.9,337.6 3.5,333.2 2.2,328.8 1.0,324.3 -0.2,319.9 -1.2,315.4 -2.2,310.9 -3.1,306.4 -4.0,301.8 -4.7,297.3 -5.4,292.7 -6.0,288.2 -6.6,283.6 -7.0,279.0 -7.4,274.4 -7.6,269.8 -7.8,265.2 -8.0,260.6 -8.0,256.0 -8.0,251.4 -7.8,246.8 -7.6,242.2 -7.4,237.6 -7.0,233.0 -6.6,228.4 -6.0,223.8 -5.4,219.3 -4.7,214.7 -4.0,210.2 -3.1,205.6 -2.2,201.1 -1.2,196.6 -0.2,192.1 1.0,187.7 2.2,183.2 3.5,178.8 4.9,174.4 6.4,170.1 7.9,165.7 9.5,161.4 11.2,157.1 13.0,152.8 14.8,148.6 16.7,144.4 18.7,140.3 20.8,136.1 22.9,132.1 25.1,128.0 27.4,124.0 29.7,120.0 32.1,116.1 34.6,112.2 37.1,108.4 39.7,104.6 42.4,100.8 45.2,97.1 48.0,93.5 50.8,89.9 53.8,86.3 56.8,82.8 59.8,79.3 62.9,76.0 66.1,72.6 69.3,69.3 72.6,66.1 76.0,62.9 79.3,59.8 82.8,56.8 86.3,53.8 89.9,50.8 93.5,48.0 97.1,45.2 100.8,42.4 104.6,39.7 108.4,37.1 112.2,34.6 116.1,32.1 120.0,29.7 124.0,27.4 128.0,25.1 132.1,22.9 136.1,20.8 140.3,18.7 144.4,16.7 148.6,14.8 152.8,13.0 157.1,11.2 161.4,9.5 165.7,7.9 170.1,6.4 174.4,4.9 178.8,3.5 183.2,2.2 187.7,1.0 192.1,-0.2 196.6,-1.2 201.1,-2.2 205.6,-3.1 210.2,-4.0 214.7,-4.7 219.3,-5.4 223.8,-6.0 228.4,-6.6 233.0,-7.0 237.6,-7.4 242.2,-7.6 246.8,-7.8 251.4,-8.0 256.0,-8.0 260.6,-8.0 265.2,-7.8 269.8,-7.6 274.4,-7.4 279.0,-7.0 283.6,-6.6 288.2,-6.0 292.7,-5.4 297.3,-4.7 301.8,-4.0 306.4,-3.1 310.9,-2.2 315.4,-1.2 319.9,-0.2 324.3,1.0 328.8,2.2 333.2,3.5 337.6,4.9 341.9,6.4 346.3,7.9 350.6,9.5 354.9,11.2 359.2,13.0 363.4,14.8 367.6,16.7 371.7,18.7 375.9,20.8 379.9,22.9 384.0,25.1 388.0,27.4 392.0,29.7 395.9,32.1 399.8,34.6 403.6,37.1 407.4,39.7 411.2,42.4 414.9,45.2 418.5,48.0 422.1,50.8 425.7,53.8 429.2,56.8 432.7,59.8 436.0,62.9 439.4,66.1 442.7,69.3 445.9,72.6 449.1,76.0 452.2,79.3 455.2,82.8 458.2,86.3 461.2,89.9 464.0,93.5 466.8,97.1 469.6,100.8 472.3,104.6 474.9,108.4 477.4,112.2 479.9,116.1 482.3,120.0 484.6,124.0 486.9,128.0 489.1,132.1 491.2,136.1 493.3,140.3 495.3,144.4 497.2,148.6 499.0,152.8 500.8,157.1 502.5,161.4 504.1,165.7 505.6,170.1 507.1,174.4 508.5,178.8 509.8,183.2 511.0,187.7 512.2,192.1 513.2,196.6 514.2,201.1 515.1,205.6 516.0,210.2 516.7,214.7 517.4,219.3 518.0,223.8 518.6,228.4 519.0,233.0 519.4,237.6 519.6,242.2 519.8,246.8 520.0,251.4" fill="none" stroke="rgba(255,255,255,0.43529411764705883)" stroke-width="2"/>
    <polygon points="548.0,256.0 548.0,261.1 547.8,266.2 547.6,271.3 547.3,276.4 546.9,281.4 546.4,286.5 545.8,291.6 545.2,296.6 544.4,301.7 543.6,306.7 542.6,311.7 541.6,316.7 540.5,321.7 539.3,326.6 538.1,331.6 536.7,336.5 535.2,341.4 533.7,346.2 532.1,351.1 530.4,355.9 528.6,360.6 526.7,365.4 524.8,370.1 522.8,374.8 520.6,379.4 518.4,384.0 516.2,388.6 513.8,393.1 511.4,397.6 508.9,402.0 506.3,406.4 503.6,410.7 500.9,415.0 498.1,419.3 495.2,423.5 492.2,427.6 489.2,431.7 486.1,435.8 482.9,439.8 479.7,443.7 476.4,447.6 473.0,451.4 469.6,455.1 466.0,458.8 462.5,462.5 458.8,466.0 455.1,469.6 451.4,473.0 447.6,476.4 443.7,479.7 439.8,482.9 435.8,486.1 431.7,489.2 427.6,492.2 423.5,495.2 419.3,498.1 415.0,500.9 410.7,503.6 406.4,506.3 402.0,508.9 397.6,511.4 393.1,513.8 388.6,516.2 384.0,518.4 379.4,520.6 374.8,522.8 370.1,524.8 365.4,526.7 360.6,528.6 355.9,530.4 351.1,532.1 346.2,533.7 341.4,535.2 336.5,536.7 331.6,538.1 326.6,539.3 321.7,540.5 316.7,541.6 311.7,542.6 306.7,543.6 301.7,544.4 296.6,545.2 291.6,545.8 286.5,546.4 281.4,546.9 276.4,547.3 271.3,547.6 266.2,547.8 261.1,548.0 256.0,548.0 250.9,548.0 245.8,547.8 240.7,547.6 235.6,547.3 230.6,546.9 225.5,546.4 220.4,545.8 215.4,545.2 210.3,544.4 205.3,543.6 200.3,542.6 195.3,541.6 190.3,540.5 185.4,539.3 180.4,538.1 175.5,536.7 170.6,535.2 165.8,533.7 160.9,532.1 156.1,530.4 151.4,528.6 146.6,526.7 141.9,524.8 137.2,522.8 132.6,520.6 128.0,518.4 123.4,516.2 118.9,513.8 114.4,511.4 110.0,508.9 105.6,506.3 101.3,503.6 97.0,500.9 92.7,498.1 88.5,495.2 84.4,492.2 80.3,489.2 76.2,486.1 72.2,482.9 68.3,479.7 64.4,476.4 60.6,473.0 56.9,469.6 53.2,466.0 49.5,462.5 46.0,458.8 42.4,455.1 39.0,451.4 35.6,447.6 32.3,443.7 29.1,439.8 25.9,435.8 22.8,431.7 19.8,427.6 16.8,423.5 13.9,419.3 11.1,415.0 8.4,410.7 5.7,406.4 3.1,402.0 0.6,397.6 -1.8,393.1 -4.2,388.6 -6.4,384.0 -8.6,379.4 -10.8,374.8 -12.8,370.1 -14.7,365.4 -16.6,360.6 -18.4,355.9 -20.1,351.1 -21.7,346.2 -23.2,341.4 -24.7,336.5 -26.1,331.6 -27.3,326.6 -28.5,321.7 -29.6,316.7 -30.6,311.7 -31.6,306.7 -32.4,301.7 -33.2,296.6 -33.8,291.6 -34.4,286.5 -34.9,281.4 -35.3,276.4 -35.6,271.3 -35.8,266.2 -36.0,261.1 -36.0,256.0 -36.0,250.9 -35.8,245.8 -35.6,240.7 -35.3,235.6 -34.9,230.6 -34.4,225.5 -33.8,220.4 -33.2,215.4 -32.4,210.3 -31.6,205.3 -30.6,200.3 -29.6,195.3 -28.5,190.3 -27.3,185.4 -26.1,180.4 -24.7,175.5 -23.2,170.6 -21.7,165.8 -20.1,160.9 -18.4,156.1 -16.6,151.4 -14.7,146.6 -12.8,141.9 -10.8,137.2 -8.6,132.6 -6.4,128.0 -4.2,123.4 -1.8,118.9 0.6,114.4 3.1,110.0 5.7,105.6 8.4,101.3 11.1,97.0 13.9,92.7 16.8,88.5 19.8,84.4 22.8,80.3 25.9,76.2 29.1,72.2 32.3,68.3 35.6,64.4 39.0,60.6 42.4,56.9 46.0,53.2 49.5,49.5 53.2,46.0 56.9,42.4 60.6,39.0 64.4,35.6 68.3,32.3 72.2,29.1 76.2,25.9 80.3,22.8 84.4,19.8 88.5,16.8 92.7,13.9 97.0,11.1 101.3,8.4 105.6,5.7 110.0,3.1 114.4,0.6 118.9,-1.8 123.4,-4.2 128.0,-6.4 132.6,-8.6 137.2,-10.8 141.9,-12.8 146.6,-14.7 151.4,-16.6 156.1,-18.4 160.9,-20.1 165.8,-21.7 170.6,-23.2 175.5,-24.7 180.4,-26.1 185.4,-27.3 190.3,-28.5 195.3,-29.6 200.3,-30.6 205.3,-31.6 210.3,-32.4 215.4,-33.2 220.4,-33.8 225.5,-34.4 230.6,-34.9 235.6,-35.3 240.7,-35.6 245.8,-35.8 250.9,-36.0 256.0,-36.0 261.1,-36.0 266.2,-35.8 271.3,-35.6 276.4,-35.3 281.4,-34.9 286.5,-34.4 291.6,-33.8 296.6,-33.2 301.7,-32.4 306.7,-31.6 311.7,-30.6 316.7,-29.6 321.7,-28.5 326.6,-27.3 331.6,-26.1 336.5,-24.7 341.4,-23.2 346.2,-21.7 351.1,-20.1 355.9,-18.4 360.6,-16.6 365.4,-14.7 370.1,-12.8 374.8,-10.8 379.4,-8.6 384.0,-6.4 388.6,-4.2 393.1,-1.8 397.6,0.6 402.0,3.1 406.4,5.7 410.7,8.4 415.0,11.1 419.3,13.9 423.5,16.8 427.6,19.8 431.7,22.8 435.8,25.9 439.8,29.1 443.7,32.3 447.6,35.6 451.4,39.0 455.1,42.4 458.8,46.0 462.5,49.5 466.0,53.2 469.6,56.9 473.0,60.6 476.4,64.4 479.7,68.3 482.9,72.2 486.1,76.2 489.2,80.3 492.2,84.4 495.2,88.5 498.1,92.7 500.9,97.0 503.6,101.3 506.3,105.6 508.9,110.0 511.4,114.4 513.8,118.9 516.2,123.4 518.4,128.0 520.6,132.6 522.8,137.2 524.8,141.9 526.7,146.6 528.6,151.4 530.4,156.1 532.1,160.9 533.7,165.8 535.2,170.6 536.7,175.5 538.1,180.4 539.3,185.4 540.5,190.3 541.6,195.3 542.6,200.3 543.6,205.3 544.4,210.3 545.2,215.4 545.8,220.4 546.4,225.5 546.9,230.6 547.3,235.6 547.6,240.7 547.8,245.8 548.0,250.9" fill="none" stroke="rgba(255,255,255,0.36470588235294116)" stroke-width="2"/>
    <polygon points="576.0,256.0 576.0,261.6 575.8,267.2 575.6,272.7 575.2,278.3 574.8,283.9 574.2,289.4 573.6,295.0 572.9,300.5 572.1,306.1 571.1,311.6 570.1,317.1 569.0,322.5 567.8,328.0 566.5,333.4 565.1,338.8 563.6,344.2 562.0,349.6 560.3,354.9 558.6,360.2 556.7,365.4 554.7,370.7 552.7,375.9 550.6,381.0 548.3,386.2 546.0,391.2 543.6,396.3 541.1,401.3 538.5,406.2 535.9,411.1 533.1,416.0 530.3,420.8 527.4,425.6 524.4,430.3 521.3,434.9 518.1,439.5 514.9,444.1 511.6,448.6 508.2,453.0 504.7,457.4 501.1,461.7 497.5,465.9 493.8,470.1 490.0,474.2 486.2,478.3 482.3,482.3 478.3,486.2 474.2,490.0 470.1,493.8 465.9,497.5 461.7,501.1 457.4,504.7 453.0,508.2 448.6,511.6 444.1,514.9 439.5,518.1 434.9,521.3 430.3,524.4 425.6,527.4 420.8,530.3 416.0,533.1 411.1,535.9 406.2,538.5 401.3,541.1 396.3,543.6 391.2,546.0 386.2,548.3 381.0,550.6 375.9,552.7 370.7,554.7 365.4,556.7 360.2,558.6 354.9,560.3 349.6,562.0 344.2,563.6 338.8,565.1 333.4,566.5 328.0,567.8 322.5,569.0 317.1,570.1 311.6,571.1 306.1,572.1 300.5,572.9 295.0,573.6 289.4,574.2 283.9,574.8 278.3,575.2 272.7,575.6 267.2,575.8 261.6,576.0 256.0,576.0 250.4,576.0 244.8,575.8 239.3,575.6 233.7,575.2 228.1,574.8 222.6,574.2 217.0,573.6 211.5,572.9 205.9,572.1 200.4,571.1 194.9,570.1 189.5,569.0 184.0,567.8 178.6,566.5 173.2,565.1 167.8,563.6 162.4,562.0 157.1,560.3 151.8,558.6 146.6,556.7 141.3,554.7 136.1,552.7 131.0,550.6 125.8,548.3 120.8,546.0 115.7,543.6 110.7,541.1 105.8,538.5 100.9,535.9 96.0,533.1 91.2,530.3 86.4,527.4 81.7,524.4 77.1,521.3 72.5,518.1 67.9,514.9 63.4,511.6 59.0,508.2 54.6,504.7 50.3,501.1 46.1,497.5 41.9,493.8 37.8,490.0 33.7,486.2 29.7,482.3 25.8,478.3 22.0,474.2 18.2,470.1 14.5,465.9 10.9,461.7 7.3,457.4 3.8,453.0 0.4,448.6 -2.9,444.1 -6.1,439.5 -9.3,434.9 -12.4,430.3 -15.4,425.6 -18.3,420.8 -21.1,416.0 -23.9,411.1 -26.5,406.2 -29.1,401.3 -31.6,396.3 -34.0,391.2 -36.3,386.2 -38.6,381.0 -40.7,375.9 -42.7,370.7 -44.7,365.4 -46.6,360.2 -48.3,354.9 -50.0,349.6 -51.6,344.2 -53.1,338.8 -54.5,333.4 -55.8,328.0 -57.0,322.5 -58.1,317.1 -59.1,311.6 -60.1,306.1 -60.9,300.5 -61.6,295.0 -62.2,289.4 -62.8,283.9 -63.2,278.3 -63.6,272.7 -63.8,267.2 -64.0,261.6 -64.0,256.0 -64.0,250.4 -63.8,244.8 -63.6,239.3 -63.2,233.7 -62.8,228.1 -62.2,222.6 -61.6,217.0 -60.9,211.5 -60.1,205.9 -59.1,200.4 -58.1,194.9 -57.0,189.5 -55.8,184.0 -54.5,178.6 -53.1,173.2 -51.6,167.8 -50.0,162.4 -48.3,157.1 -46.6,151.8 -44.7,146.6 -42.7,141.3 -40.7,136.1 -38.6,131.0 -36.3,125.8 -34.0,120.8 -31.6,115.7 -29.1,110.7 -26.5,105.8 -23.9,100.9 -21.1,96.0 -18.3,91.2 -15.4,86.4 -12.4,81.7 -9.3,77.1 -6.1,72.5 -2.9,67.9 0.4,63.4 3.8,59.0 7.3,54.6 10.9,50.3 14.5,46.1 18.2,41.9 22.0,37.8 25.8,33.7 29.7,29.7 33.7,25.8 37.8,22.0 41.9,18.2 46.1,14.5 50.3,10.9 54.6,7.3 59.0,3.8 63.4,0.4 67.9,-2.9 72.5,-6.1 77.1,-9.3 81.7,-12.4 86.4,-15.4 91.2,-18.3 96.0,-21.1 100.9,-23.9 105.8,-26.5 110.7,-29.1 115.7,-31.6 120.8,-34.0 125.8,-36.3 131.0,-38.6 136.1,-40.7 141.3,-42.7 146.6,-44.7 151.8,-46.6 157.1,-48.3 162.4,-50.0 167.8,-51.6 173.2,-53.1 178.6,-54.5 184.0,-55.8 189.5,-57.0 194.9,-58.1 200.4,-59.1 205.9,-60.1 211.5,-60.9 217.0,-61.6 222.6,-62.2 228.1,-62.8 233.7,-63.2 239.3,-63.6 244.8,-63.8 250.4,-64.0 256.0,-64.0 261.6,-64.0 267.2,-63.8 272.7,-63.6 278.3,-63.2 283.9,-62.8 289.4,-62.2 295.0,-61.6 300.5,-60.9 306.1,-60.1 311.6,-59.1 317.1,-58.1 322.5,-57.0 328.0,-55.8 333.4,-54.5 338.8,-53.1 344.2,-51.6 349.6,-50.0 354.9,-48.3 360.2,-46.6 365.4,-44.7 370.7,-42.7 375.9,-40.7 381.0,-38.6 386.2,-36.3 391.2,-34.0 396.3,-31.6 401.3,-29.1 406.2,-26.5 411.1,-23.9 416.0,-21.1 420.8,-18.3 425.6,-15.4 430.3,-12.4 434.9,-9.3 439.5,-6.1 444.1,-2.9 448.6,0.4 453.0,3.8 457.4,7.3 461.7,10.9 465.9,14.5 470.1,18.2 474.2,22.0 478.3,25.8 482.3,29.7 486.2,33.7 490.0,37.8 493.8,41.9 497.5,46.1 501.1,50.3 504.7,54.6 508.2,59.0 511.6,63.4 514.9,67.9 518.1,72.5 521.3,77.1 524.4,81.7 527.4,86.4 530.3,91.2 533.1,96.0 535.9,100.9 538.5,105.8 541.1,110.7 543.6,115.7 546.0,120.8 548.3,125.8 550.6,131.0 552.7,136.1 554.7,141.3 556.7,146.6 558.6,151.8 560.3,157.1 562.0,162.4 563.6,167.8 565.1,173.2 566.5,178.6 567.8,184.0 569.0,189.5 570.1,194.9 571.1,200.4 572.1,205.9 572.9,211.5 573.6,217.0 574.2,222.6 574.8,228.1 575.2,233.7 575.6,239.3 575.8,244.8 576.0,250.4" fill="none" stroke="rgba(255,255,255,0.29411764705882354)" stroke-width="2"/>
    <polygon points="604.0,256.0 603.9,262.1 603.8,268.1 603.5,274.2 603.2,280.3 602.7,286.3 602.1,292.4 601.4,298.4 600.6,304.4 599.7,310.4 598.7,316.4 597.6,322.4 596.4,328.4 595.1,334.3 593.7,340.2 592.1,346.1 590.5,351.9 588.8,357.7 587.0,363.5 585.0,369.3 583.0,375.0 580.9,380.7 578.7,386.4 576.3,392.0 573.9,397.5 571.4,403.1 568.8,408.6 566.1,414.0 563.3,419.4 560.4,424.7 557.4,430.0 554.3,435.2 551.1,440.4 547.9,445.5 544.5,450.6 541.1,455.6 537.5,460.5 533.9,465.4 530.2,470.3 526.4,475.0 522.6,479.7 518.6,484.3 514.6,488.9 510.5,493.3 506.3,497.7 502.1,502.1 497.7,506.3 493.3,510.5 488.9,514.6 484.3,518.6 479.7,522.6 475.0,526.4 470.3,530.2 465.4,533.9 460.5,537.5 455.6,541.1 450.6,544.5 445.5,547.9 440.4,551.1 435.2,554.3 430.0,557.4 424.7,560.4 419.4,563.3 414.0,566.1 408.6,568.8 403.1,571.4 397.5,573.9 392.0,576.3 386.4,578.7 380.7,580.9 375.0,583.0 369.3,585.0 363.5,587.0 357.7,588.8 351.9,590.5 346.1,592.1 340.2,593.7 334.3,595.1 328.4,596.4 322.4,597.6 316.4,598.7 310.4,599.7 304.4,600.6 298.4,601.4 292.4,602.1 286.3,602.7 280.3,603.2 274.2,603.5 268.1,603.8 262.1,603.9 256.0,604.0 249.9,603.9 243.9,603.8 237.8,603.5 231.7,603.2 225.7,602.7 219.6,602.1 213.6,601.4 207.6,600.6 201.6,599.7 195.6,598.7 189.6,597.6 183.6,596.4 177.7,595.1 171.8,593.7 165.9,592.1 160.1,590.5 154.3,588.8 148.5,587.0 142.7,585.0 137.0,583.0 131.3,580.9 125.6,578.7 120.0,576.3 114.5,573.9 108.9,571.4 103.4,568.8 98.0,566.1 92.6,563.3 87.3,560.4 82.0,557.4 76.8,554.3 71.6,551.1 66.5,547.9 61.4,544.5 56.4,541.1 51.5,537.5 46.6,533.9 41.7,530.2 37.0,526.4 32.3,522.6 27.7,518.6 23.1,514.6 18.7,510.5 14.3,506.3 9.9,502.1 5.7,497.7 1.5,493.3 -2.6,488.9 -6.6,484.3 -10.6,479.7 -14.4,475.0 -18.2,470.3 -21.9,465.4 -25.5,460.5 -29.1,455.6 -32.5,450.6 -35.9,445.5 -39.1,440.4 -42.3,435.2 -45.4,430.0 -48.4,424.7 -51.3,419.4 -54.1,414.0 -56.8,408.6 -59.4,403.1 -61.9,397.5 -64.3,392.0 -66.7,386.4 -68.9,380.7 -71.0,375.0 -73.0,369.3 -75.0,363.5 -76.8,357.7 -78.5,351.9 -80.1,346.1 -81.7,340.2 -83.1,334.3 -84.4,328.4 -85.6,322.4 -86.7,316.4 -87.7,310.4 -88.6,304.4 -89.4,298.4 -90.1,292.4 -90.7,286.3 -91.2,280.3 -91.5,274.2 -91.8,268.1 -91.9,262.1 -92.0,256.0 -91.9,249.9 -91.8,243.9 -91.5,237.8 -91.2,231.7 -90.7,225.7 -90.1,219.6 -89.4,213.6 -88.6,207.6 -87.7,201.6 -86.7,195.6 -85.6,189.6 -84.4,183.6 -83.1,177.7 -81.7,171.8 -80.1,165.9 -78.5,160.1 -76.8,154.3 -75.0,148.5 -73.0,142.7 -71.0,137.0 -68.9,131.3 -66.7,125.6 -64.3,120.0 -61.9,114.5 -59.4,108.9 -56.8,103.4 -54.1,98.0 -51.3,92.6 -48.4,87.3 -45.4,82.0 -42.3,76.8 -39.1,71.6 -35.9,66.5 -32.5,61.4 -29.1,56.4 -25.5,51.5 -21.9,46.6 -18.2,41.7 -14.4,37.0 -10.6,32.3 -6.6,27.7 -2.6,23.1 1.5,18.7 5.7,14.3 9.9,9.9 14.3,5.7 18.7,1.5 23.1,-2.6 27.7,-6.6 32.3,-10.6 37.0,-14.4 41.7,-18.2 46.6,-21.9 51.5,-25.5 56.4,-29.1 61.4,-32.5 66.5,-35.9 71.6,-39.1 76.8,-42.3 82.0,-45.4 87.3,-48.4 92.6,-51.3 98.0,-54.1 103.4,-56.8 108.9,-59.4 114.5,-61.9 120.0,-64.3 125.6,-66.7 131.3,-68.9 137.0,-71.0 142.7,-73.0 148.5,-75.0 154.3,-76.8 160.1,-78.5 165.9,-80.1 171.8,-81.7 177.7,-83.1 183.6,-84.4 189.6,-85.6 195.6,-86.7 201.6,-87.7 207.6,-88.6 213.6,-89.4 219.6,-90.1 225.7,-90.7 231.7,-91.2 237.8,-91.5 243.9,-91.8 249.9,-91.9 256.0,-92.0 262.1,-91.9 268.1,-91.8 274.2,-91.5 280.3,-91.2 286.3,-90.7 292.4,-90.1 298.4,-89.4 304.4,-88.6 310.4,-87.7 316.4,-86.7 322.4,-85.6 328.4,-84.4 334.3,-83.1 340.2,-81.7 346.1,-80.1 351.9,-78.5 357.7,-76.8 363.5,-75.0 369.3,-73.0 375.0,-71.0 380.7,-68.9 386.4,-66.7 392.0,-64.3 397.5,-61.9 403.1,-59.4 408.6,-56.8 414.0,-54.1 419.4,-51.3 424.7,-48.4 430.0,-45.4 435.2,-42.3 440.4,-39.1 445.5,-35.9 450.6,-32.5 455.6,-29.1 460.5,-25.5 465.4,-21.9 470.3,-18.2 475.0,-14.4 479.7,-10.6 484.3,-6.6 488.9,-2.6 493.3,1.5 497.7,5.7 502.1,9.9 506.3,14.3 510.5,18.7 514.6,23.1 518.6,27.7 522.6,32.3 526.4,37.0 530.2,41.7 533.9,46.6 537.5,51.5 541.1,56.4 544.5,61.4 547.9,66.5 551.1,71.6 554.3,76.8 557.4,82.0 560.4,87.3 563.3,92.6 566.1,98.0 568.8,103.4 571.4,108.9 573.9,114.5 576.3,120.0 578.7,125.6 580.9,131.3 583.0,137.0 585.0,142.7 587.0,148.5 588.8,154.3 590.5,160.1 592.1,165.9 593.7,171.8 595.1,177.7 596.4,183.6 597.6,189.6 598.7,195.6 599.7,201.6 600.6,207.6 601.4,213.6 602.1,219.6 602.7,225.7 603.2,231.7 603.5,237.8 603.8,243.9 603.9,249.9" fill="none" stroke="rgba(255,255,255,0.2235294117647059)" stroke-width="2"/>
    <circle cx="256" cy="256" r="8" fill="white"/>
    <circle cx="256" cy="256" r="6" fill="white"/>
    <circle cx="256" cy="256" r="4" fill="white"/>
  </g>
</svg>