<?xml version="1.0" encoding="UTF-8"?>
<svg xmlns="http://www.w3.org/2000/svg" viewBox="0 0 512 512" width="512" height="512">
  <rect width="100%" height="100%" fill="#000000"/>
  <g fill="none" stroke="rgba(200,200,200,0.8)" stroke-width="2">
    <line x1="436.0" y1="256.0" x2="364.0" y2="256.0" stroke="rgba(200,200,200,0.6)"/>
    <line x1="435.0" y1="274.8" x2="363.4" y2="267.3" stroke="rgba(200,200,200,0.6)"/>
    <line x1="432.1" y1="293.4" x2="361.6" y2="278.5" stroke="rgba(200,200,200,0.6)"/>
    <line x1="427.2" y1="311.6" x2="358.7" y2="289.4" stroke="rgba(200,200,200,0.6)"/>
    <line x1="420.4" y1="329.2" x2="354.7" y2="299.9" stroke="rgba(200,200,200,0.6)"/>
    <line x1="411.9" y1="346.0" x2="349.5" y2="310.0" stroke="rgba(200,200,200,0.6)"/>
    <line x1="401.6" y1="361.8" x2="343.4" y2="319.5" stroke="rgba(200,200,200,0.6)"/>
    <line x1="389.8" y1="376.4" x2="336.3" y2="328.3" stroke="rgba(200,200,200,0.6)"/>
    <line x1="376.4" y1="389.8" x2="328.3" y2="336.3" stroke="rgba(200,200,200,0.6)"/>
    <line x1="361.8" y1="401.6" x2="319.5" y2="343.4" stroke="rgba(200,200,200,0.6)"/>
    <line x1="346.0" y1="411.9" x2="310.0" y2="349.5" stroke="rgba(200,200,200,0.6)"/>
    <line x1="329.2" y1="420.4" x2="299.9" y2="354.7" stroke="rgba(200,200,200,0.6)"/>
    <line x1="311.6" y1="427.2" x2="289.4" y2="358.7" stroke="rgba(200,200,200,0.6)"/>
    <line x1="293.4" y1="432.1" x2="278.5" y2="361.6" stroke="rgba(200,200,200,0.6)"/>
    <line x1="274.8" y1="435.0" x2="267.3" y2="363.4" stroke="rgba(200,200,200,0.6)"/>
    <line x1="256.0" y1="436.0" x2="256.0" y2="364.0" stroke="rgba(200,200,200,0.6)"/>
    <line x1="237.2" y1="435.0" x2="244.7" y2="363.4" stroke="rgba(200,200,200,0.6)"/>
    <line x1="218.6" y1="432.1" x2="233.5" y2="361.6" stroke="rgba(200,200,200,0.6)"/>
    <line x1="200.4" y1="427.2" x2="222.6" y2="358.7" stroke="rgba(200,200,200,0.6)"/>
    <line x1="182.8" y1="420.4" x2="212.1" y2="354.7" stroke="rgba(200,200,200,0.6)"/>
    <line x1="166.0" y1="411.9" x2="202.0" y2="349.5" stroke="rgba(200,200,200,0.6)"/>
    <line x1="150.2" y1="401.6" x2="192.5" y2="343.4" stroke="rgba(200,200,200,0.6)"/>
    <line x1="135.6" y1="389.8" x2="183.7" y2="336.3" stroke="rgba(200,200,200,0.6)"/>
    <line x1="122.2" y1="376.4" x2="175.7" y2="328.3" stroke="rgba(200,200,200,0.6)"/>
    <line x1="110.4" y1="361.8" x2="168.6" y2="319.5" stroke="rgba(200,200,200,0.6)"/>
    <line x1="100.1" y1="346.0" x2="162.5" y2="310.0" stroke="rgba(200,200,200,0.6)"/>
    <line x1="91.6" y1="329.2" x2="157.3" y2="299.9" stroke="rgba(200,200,200,0.6)"/>
    <line x1="84.8" y1="311.6" x2="153.3" y2="289.4" stroke="rgba(200,200,200,0.6)"/>
    <line x1="79.9" y1="293.4" x2="150.4" y2="278.5" stroke="rgba(200,200,200,0.6)"/>
    <line x1="77.0" y1="274.8" x2="148.6" y2="267.3" stroke="rgba(200,200,200,0.6)"/>
    <line x1="76.0" y1="256.0" x2="148.0" y2="256.0" stroke="rgba(200,200,200,0.6)"/>
    <line x1="77.0" y1="237.2" x2="148.6" y2="244.7" stroke="rgba(200,200,200,0.6)"/>
    <line x1="79.9" y1="218.6" x2="150.4" y2="233.5" stroke="rgba(200,200,200,0.6)"/>
    <line x1="84.8" y1="200.4" x2="153.3" y2="222.6" stroke="rgba(200,200,200,0.6)"/>
    <line x1="91.6" y1="182.8" x2="157.3" y2="212.1" stroke="rgba(200,200,200,0.6)"/>
    <line x1="100.1" y1="166.0" x2="162.5" y2="202.0" stroke="rgba(200,200,200,0.6)"/>
    <line x1="110.4" y1="150.2" x2="168.6" y2="192.5" stroke="rgba(200,200,200,0.6)"/>
    <line x1="122.2" y1="135.6" x2="175.7" y2="183.7" stroke="rgba(200,200,200,0.6)"/>
    <line x1="135.6" y1="122.2" x2="183.7" y2="175.7" stroke="rgba(200,200,200,0.6)"/>
    <line x1="150.2" y1="110.4" x2="192.5" y2="168.6" stroke="rgba(200,200,200,0.6)"/>
    <line x1="166.0" y1="100.1" x2="202.0" y2="162.5" stroke="rgba(200,200,200,0.6)"/>
    <line x1="182.8" y1="91.6" x2="212.1" y2="157.3" stroke="rgba(200,200,200,0.6)"/>
    <line x1="200.4" y1="84.8" x2="222.6" y2="153.3" stroke="rgba(200,200,200,0.6)"/>
    <line x1="218.6" y1="79.9" x2="233.5" y2="150.4" stroke="rgba(200,200,200,0.6)"/>
    <line x1="237.2" y1="77.0" x2="244.7" y2="148.6" stroke="rgba(200,200,200,0.6)"/>
    <line x1="256.0" y1="76.0" x2="256.0" y2="148.0" stroke="rgba(200,200,200,0.6)"/>
    <line x1="274.8" y1="77.0" x2="267.3" y2="148.6" stroke="rgba(200,200,200,0.6)"/>
    <line x1="293.4" y1="79.9" x2="278.5" y2="150.4" stroke="rgba(200,200,200,0.6)"/>
    <line x1="311.6" y1="84.8" x2="289.4" y2="153.3" stroke="rgba(200,200,200,0.6)"/>
    <line x1="329.2" y1="91.6" x2="299.9" y2="157.3" stroke="rgba(200,200,200,0.6)"/>
    <line x1="346.0" y1="100.1" x2="310.0" y2="162.5" stroke="rgba(200,200,200,0.6)"/>
    <line x1="361.8" y1="110.4" x2="319.5" y2="168.6" stroke="rgba(200,200,200,0.6)"/>
    <line x1="376.4" y1="122.2" x2="328.3" y2="175.7" stroke="rgba(200,200,200,0.6)"/>
    <line x1="389.8" y1="135.6" x2="336.3" y2="183.7" stroke="rgba(200,200,200,0.6)"/>
    <line x1="401.6" y1="150.2" x2="343.4" y2="192.5" stroke="rgba(200,200,200,0.6)"/>
    <line x1="411.9" y1="166.0" x2="349.5" y2="202.0" stroke="rgba(200,200,200,0.6)"/>
    <line x1="420.4" y1="182.8" x2="354.7" y2="212.1" stroke="rgba(200,200,200,0.6)"/>
    <line x1="427.2" y1="200.4" x2="358.7" y2="222.6" stroke="rgba(200,200,200,0.6)"/>
    <line x1="432.1" y1="218.6" x2="361.6" y2="233.5" stroke="rgba(200,200,200,0.6)"/>
    <line x1="435.0" y1="237.2" x2="363.4" y2="244.7" stroke="rgba(200,200,200,0.6)"/>
    <circle cx="256" cy="256" r="6" fill="white"/>
    <circle cx="256" cy="256" r="180" fill="none" stroke="rgba(255,255,255,0.9)" stroke-width="3" stroke-dasharray="8,4"/>
    <circle cx="256" cy="256" r="220" fill="none" stroke="rgba(100,100,100,0.5)"/>
  </g>
</svg>