<?xml version="1.0" encoding="UTF-8"?>
<svg xmlns="http://www.w3.org/2000/svg" viewBox="0 0 512 512" width="512" height="512">
  <rect width="100%" height="100%" fill="#000000"/>
  <g fill="none" stroke="rgba(200,200,200,0.7)" stroke-width="2">
    <circle cx="256" cy="256" r="50" stroke="rgba(220,220,220,0.8)"/>
    <circle cx="256" cy="256" r="90" stroke="rgba(195,195,195,0.8)"/>
    <circle cx="256" cy="256" r="130" stroke="rgba(170,170,170,0.8)"/>
    <circle cx="256" cy="256" r="170" stroke="rgba(145,145,145,0.8)"/>
    <circle cx="256" cy="256" r="210" stroke="rgba(120,120,120,0.8)"/>
  </g>
  <g stroke="rgba(80,80,80,0.5)" stroke-width="1">
    <line x1="276.0" y1="256.0" x2="486.0" y2="256.0"/>
    <line x1="273.3" y1="266.0" x2="455.2" y2="371.0"/>
    <line x1="266.0" y1="273.3" x2="371.0" y2="455.2"/>
    <line x1="256.0" y1="276.0" x2="256.0" y2="486.0"/>
    <line x1="246.0" y1="273.3" x2="141.0" y2="455.2"/>
    <line x1="238.7" y1="266.0" x2="56.8" y2="371.0"/>
    <line x1="236.0" y1="256.0" x2="26.0" y2="256.0"/>
    <line x1="238.7" y1="246.0" x2="56.8" y2="141.0"/>
    <line x1="246.0" y1="238.7" x2="141.0" y2="56.8"/>
    <line x1="256.0" y1="236.0" x2="256.0" y2="26.0"/>
    <line x1="266.0" y1="238.7" x2="371.0" y2="56.8"/>
    <line x1="273.3" y1="246.0" x2="455.2" y2="141.0"/>
  </g>
  <g>
    <circle cx="256" cy="256" r="12" fill="white"/>
    <circle cx="256" cy="256" r="6" fill="white"/>
  </g>
</svg>