<?xml version="1.0" encoding="UTF-8"?>
<svg xmlns="http://www.w3.org/2000/svg" viewBox="0 0 512 512" width="512" height="512">
  <rect width="100%" height="100%" fill="#000000"/>
  <g fill="none" stroke="rgba(150,150,150,0.7)" stroke-width="1.5">
    <line x1="496.0" y1="256.0" x2="296.0" y2="256.0"/>
    <line x1="477.7" y1="347.8" x2="293.0" y2="271.3"/>
    <line x1="425.7" y1="425.7" x2="284.3" y2="284.3"/>
    <line x1="347.8" y1="477.7" x2="271.3" y2="293.0"/>
    <line x1="256.0" y1="496.0" x2="256.0" y2="296.0"/>
    <line x1="164.2" y1="477.7" x2="240.7" y2="293.0"/>
    <line x1="86.3" y1="425.7" x2="227.7" y2="284.3"/>
    <line x1="34.3" y1="347.8" x2="219.0" y2="271.3"/>
    <line x1="16.0" y1="256.0" x2="216.0" y2="256.0"/>
    <line x1="34.3" y1="164.2" x2="219.0" y2="240.7"/>
    <line x1="86.3" y1="86.3" x2="227.7" y2="227.7"/>
    <line x1="164.2" y1="34.3" x2="240.7" y2="219.0"/>
    <line x1="256.0" y1="16.0" x2="256.0" y2="216.0"/>
    <line x1="347.8" y1="34.3" x2="271.3" y2="219.0"/>
    <line x1="425.7" y1="86.3" x2="284.3" y2="227.7"/>
    <line x1="477.7" y1="164.2" x2="293.0" y2="240.7"/>
    <circle cx="256" cy="256" r="60" stroke="rgba(180,180,180,0.7)"/>
    <circle cx="256" cy="256" r="100" stroke="rgba(155,155,155,0.7)"/>
    <circle cx="256" cy="256" r="140" stroke="rgba(130,130,130,0.7)"/>
    <circle cx="256" cy="256" r="180" stroke="rgba(105,105,105,0.7)"/>
    <circle cx="256" cy="256" r="220" stroke="rgba(80,80,80,0.7)"/>
  </g>
  <g>
    <circle cx="256" cy="256" r="10" fill="white"/>
  </g>
</svg>