<?xml version="1.0" encoding="UTF-8"?>
<svg xmlns="http://www.w3.org/2000/svg" viewBox="0 0 512 512" width="512" height="512">
  <rect width="100%" height="100%" fill="#000000"/>
  <g fill="none" stroke="white" stroke-width="2">
    <polygon points="366.4,256.0 366.4,257.9 366.3,259.9 366.2,261.8 366.1,263.7 366.0,265.6 365.8,267.5 365.6,269.5 365.3,271.4 365.0,273.3 364.7,275.2 364.4,277.1 364.0,279.0 363.6,280.8 363.1,282.7 362.6,284.6 362.1,286.4 361.6,288.3 361.0,290.1 360.4,291.9 359.7,293.8 359.1,295.6 358.4,297.4 357.6,299.1 356.9,300.9 356.1,302.7 355.2,304.4 354.4,306.1 353.5,307.8 352.6,309.5 351.6,311.2 350.6,312.9 349.6,314.5 348.6,316.1 347.5,317.7 346.4,319.3 345.3,320.9 344.2,322.4 343.0,324.0 341.8,325.5 340.6,327.0 339.3,328.4 338.0,329.9 336.7,331.3 335.4,332.7 334.1,334.1 332.7,335.4 331.3,336.7 329.9,338.0 328.4,339.3 327.0,340.6 325.5,341.8 324.0,343.0 322.4,344.2 320.9,345.3 319.3,346.4 317.7,347.5 316.1,348.6 314.5,349.6 312.9,350.6 311.2,351.6 309.5,352.6 307.8,353.5 306.1,354.4 304.4,355.2 302.7,356.1 300.9,356.9 299.1,357.6 297.4,358.4 295.6,359.1 293.8,359.7 291.9,360.4 290.1,361.0 288.3,361.6 286.4,362.1 284.6,362.6 282.7,363.1 280.8,363.6 279.0,364.0 277.1,364.4 275.2,364.7 273.3,365.0 271.4,365.3 269.5,365.6 267.5,365.8 265.6,366.0 263.7,366.1 261.8,366.2 259.9,366.3 257.9,366.4 256.0,366.4 254.1,366.4 252.1,366.3 250.2,366.2 248.3,366.1 246.4,366.0 244.5,365.8 242.5,365.6 240.6,365.3 238.7,365.0 236.8,364.7 234.9,364.4 233.0,364.0 231.2,363.6 229.3,363.1 227.4,362.6 225.6,362.1 223.7,361.6 221.9,361.0 220.1,360.4 218.2,359.7 216.4,359.1 214.6,358.4 212.9,357.6 211.1,356.9 209.3,356.1 207.6,355.2 205.9,354.4 204.2,353.5 202.5,352.6 200.8,351.6 199.1,350.6 197.5,349.6 195.9,348.6 194.3,347.5 192.7,346.4 191.1,345.3 189.6,344.2 188.0,343.0 186.5,341.8 185.0,340.6 183.6,339.3 182.1,338.0 180.7,336.7 179.3,335.4 177.9,334.1 176.6,332.7 175.3,331.3 174.0,329.9 172.7,328.4 171.4,327.0 170.2,325.5 169.0,324.0 167.8,322.4 166.7,320.9 165.6,319.3 164.5,317.7 163.4,316.1 162.4,314.5 161.4,312.9 160.4,311.2 159.4,309.5 158.5,307.8 157.6,306.1 156.8,304.4 155.9,302.7 155.1,300.9 154.4,299.1 153.6,297.4 152.9,295.6 152.3,293.8 151.6,291.9 151.0,290.1 150.4,288.3 149.9,286.4 149.4,284.6 148.9,282.7 148.4,280.8 148.0,279.0 147.6,277.1 147.3,275.2 147.0,273.3 146.7,271.4 146.4,269.5 146.2,267.5 146.0,265.6 145.9,263.7 145.8,261.8 145.7,259.9 145.6,257.9 145.6,256.0 145.6,254.1 145.7,252.1 145.8,250.2 145.9,248.3 146.0,246.4 146.2,244.5 146.4,242.5 146.7,240.6 147.0,238.7 147.3,236.8 147.6,234.9 148.0,233.0 148.4,231.2 148.9,229.3 149.4,227.4 149.9,225.6 150.4,223.7 151.0,221.9 151.6,220.1 152.3,218.2 152.9,216.4 153.6,214.6 154.4,212.9 155.1,211.1 155.9,209.3 156.8,207.6 157.6,205.9 158.5,204.2 159.4,202.5 160.4,200.8 161.4,199.1 162.4,197.5 163.4,195.9 164.5,194.3 165.6,192.7 166.7,191.1 167.8,189.6 169.0,188.0 170.2,186.5 171.4,185.0 172.7,183.6 174.0,182.1 175.3,180.7 176.6,179.3 177.9,177.9 179.3,176.6 180.7,175.3 182.1,174.0 183.6,172.7 185.0,171.4 186.5,170.2 188.0,169.0 189.6,167.8 191.1,166.7 192.7,165.6 194.3,164.5 195.9,163.4 197.5,162.4 199.1,161.4 200.8,160.4 202.5,159.4 204.2,158.5 205.9,157.6 207.6,156.8 209.3,155.9 211.1,155.1 212.9,154.4 214.6,153.6 216.4,152.9 218.2,152.3 220.1,151.6 221.9,151.0 223.7,150.4 225.6,149.9 227.4,149.4 229.3,148.9 231.2,148.4 233.0,148.0 234.9,147.6 236.8,147.3 238.7,147.0 240.6,146.7 242.5,146.4 244.5,146.2 246.4,146.0 248.3,145.9 250.2,145.8 252.1,145.7 254.1,145.6 256.0,145.6 257.9,145.6 259.9,145.7 261.8,145.8 263.7,145.9 265.6,146.0 267.5,146.2 269.5,146.4 271.4,146.7 273.3,147.0 275.2,147.3 277.1,147.6 279.0,148.0 280.8,148.4 282.7,148.9 284.6,149.4 286.4,149.9 288.3,150.4 290.1,151.0 291.9,151.6 293.8,152.3 295.6,152.9 297.4,153.6 299.1,154.4 300.9,155.1 302.7,155.9 304.4,156.8 306.1,157.6 307.8,158.5 309.5,159.4 311.2,160.4 312.9,161.4 314.5,162.4 316.1,163.4 317.7,164.5 319.3,165.6 320.9,166.7 322.4,167.8 324.0,169.0 325.5,170.2 327.0,171.4 328.4,172.7 329.9,174.0 331.3,175.3 332.7,176.6 334.1,177.9 335.4,179.3 336.7,180.7 338.0,182.1 339.3,183.6 340.6,185.0 341.8,186.5 343.0,188.0 344.2,189.6 345.3,191.1 346.4,192.7 347.5,194.3 348.6,195.9 349.6,197.5 350.6,199.1 351.6,200.8 352.6,202.5 353.5,204.2 354.4,205.9 355.2,207.6 356.1,209.3 356.9,211.1 357.6,212.9 358.4,214.6 359.1,216.4 359.7,218.2 360.4,220.1 361.0,221.9 361.6,223.7 362.1,225.6 362.6,227.4 363.1,229.3 363.6,231.2 364.0,233.0 364.4,234.9 364.7,236.8 365.0,238.7 365.3,240.6 365.6,242.5 365.8,244.5 366.0,246.4 366.1,248.3 366.2,250.2 366.3,252.1 366.4,254.1" fill="none" stroke="rgba(255,255,255,1.0)" stroke-width="3"/>
    <polygon points="375.0,256.0 375.0,258.1 375.0,260.2 374.9,262.2 374.8,264.3 374.6,266.4 374.4,268.4 374.2,270.5 373.9,272.6 373.6,274.6 373.2,276.7 372.9,278.7 372.4,280.7 372.0,282.8 371.5,284.8 371.0,286.8 370.4,288.8 369.8,290.8 369.2,292.8 368.6,294.8 367.9,296.7 367.1,298.7 366.4,300.6 365.6,302.5 364.7,304.4 363.9,306.3 363.0,308.2 362.1,310.0 361.1,311.9 360.1,313.7 359.1,315.5 358.0,317.3 357.0,319.1 355.8,320.8 354.7,322.6 353.5,324.3 352.3,326.0 351.1,327.6 349.8,329.3 348.5,330.9 347.2,332.5 345.8,334.1 344.5,335.7 343.1,337.2 341.6,338.7 340.2,340.2 338.7,341.6 337.2,343.1 335.7,344.5 334.1,345.8 332.5,347.2 330.9,348.5 329.3,349.8 327.6,351.1 326.0,352.3 324.3,353.5 322.6,354.7 320.8,355.8 319.1,357.0 317.3,358.0 315.5,359.1 313.7,360.1 311.9,361.1 310.0,362.1 308.2,363.0 306.3,363.9 304.4,364.7 302.5,365.6 300.6,366.4 298.7,367.1 296.7,367.9 294.8,368.6 292.8,369.2 290.8,369.8 288.8,370.4 286.8,371.0 284.8,371.5 282.8,372.0 280.7,372.4 278.7,372.9 276.7,373.2 274.6,373.6 272.6,373.9 270.5,374.2 268.4,374.4 266.4,374.6 264.3,374.8 262.2,374.9 260.2,375.0 258.1,375.0 256.0,375.0 253.9,375.0 251.8,375.0 249.8,374.9 247.7,374.8 245.6,374.6 243.6,374.4 241.5,374.2 239.4,373.9 237.4,373.6 235.3,373.2 233.3,372.9 231.3,372.4 229.2,372.0 227.2,371.5 225.2,371.0 223.2,370.4 221.2,369.8 219.2,369.2 217.2,368.6 215.3,367.9 213.3,367.1 211.4,366.4 209.5,365.6 207.6,364.7 205.7,363.9 203.8,363.0 202.0,362.1 200.1,361.1 198.3,360.1 196.5,359.1 194.7,358.0 192.9,357.0 191.2,355.8 189.4,354.7 187.7,353.5 186.0,352.3 184.4,351.1 182.7,349.8 181.1,348.5 179.5,347.2 177.9,345.8 176.3,344.5 174.8,343.1 173.3,341.6 171.8,340.2 170.4,338.7 168.9,337.2 167.5,335.7 166.2,334.1 164.8,332.5 163.5,330.9 162.2,329.3 160.9,327.6 159.7,326.0 158.5,324.3 157.3,322.6 156.2,320.8 155.0,319.1 154.0,317.3 152.9,315.5 151.9,313.7 150.9,311.9 149.9,310.0 149.0,308.2 148.1,306.3 147.3,304.4 146.4,302.5 145.6,300.6 144.9,298.7 144.1,296.7 143.4,294.8 142.8,292.8 142.2,290.8 141.6,288.8 141.0,286.8 140.5,284.8 140.0,282.8 139.6,280.7 139.1,278.7 138.8,276.7 138.4,274.6 138.1,272.6 137.8,270.5 137.6,268.4 137.4,266.4 137.2,264.3 137.1,262.2 137.0,260.2 137.0,258.1 137.0,256.0 137.0,253.9 137.0,251.8 137.1,249.8 137.2,247.7 137.4,245.6 137.6,243.6 137.8,241.5 138.1,239.4 138.4,237.4 138.8,235.3 139.1,233.3 139.6,231.3 140.0,229.2 140.5,227.2 141.0,225.2 141.6,223.2 142.2,221.2 142.8,219.2 143.4,217.2 144.1,215.3 144.9,213.3 145.6,211.4 146.4,209.5 147.3,207.6 148.1,205.7 149.0,203.8 149.9,202.0 150.9,200.1 151.9,198.3 152.9,196.5 154.0,194.7 155.0,192.9 156.2,191.2 157.3,189.4 158.5,187.7 159.7,186.0 160.9,184.4 162.2,182.7 163.5,181.1 164.8,179.5 166.2,177.9 167.5,176.3 168.9,174.8 170.4,173.3 171.8,171.8 173.3,170.4 174.8,168.9 176.3,167.5 177.9,166.2 179.5,164.8 181.1,163.5 182.7,162.2 184.4,160.9 186.0,159.7 187.7,158.5 189.4,157.3 191.2,156.2 192.9,155.0 194.7,154.0 196.5,152.9 198.3,151.9 200.1,150.9 202.0,149.9 203.8,149.0 205.7,148.1 207.6,147.3 209.5,146.4 211.4,145.6 213.3,144.9 215.3,144.1 217.2,143.4 219.2,142.8 221.2,142.2 223.2,141.6 225.2,141.0 227.2,140.5 229.2,140.0 231.3,139.6 233.3,139.1 235.3,138.8 237.4,138.4 239.4,138.1 241.5,137.8 243.6,137.6 245.6,137.4 247.7,137.2 249.8,137.1 251.8,137.0 253.9,137.0 256.0,137.0 258.1,137.0 260.2,137.0 262.2,137.1 264.3,137.2 266.4,137.4 268.4,137.6 270.5,137.8 272.6,138.1 274.6,138.4 276.7,138.8 278.7,139.1 280.7,139.6 282.8,140.0 284.8,140.5 286.8,141.0 288.8,141.6 290.8,142.2 292.8,142.8 294.8,143.4 296.7,144.1 298.7,144.9 300.6,145.6 302.5,146.4 304.4,147.3 306.3,148.1 308.2,149.0 310.0,149.9 311.9,150.9 313.7,151.9 315.5,152.9 317.3,154.0 319.1,155.0 320.8,156.2 322.6,157.3 324.3,158.5 326.0,159.7 327.6,160.9 329.3,162.2 330.9,163.5 332.5,164.8 334.1,166.2 335.7,167.5 337.2,168.9 338.7,170.4 340.2,171.8 341.6,173.3 343.1,174.8 344.5,176.3 345.8,177.9 347.2,179.5 348.5,181.1 349.8,182.7 351.1,184.4 352.3,186.0 353.5,187.7 354.7,189.4 355.8,191.2 357.0,192.9 358.0,194.7 359.1,196.5 360.1,198.3 361.1,200.1 362.1,202.0 363.0,203.8 363.9,205.7 364.7,207.6 365.6,209.5 366.4,211.4 367.1,213.3 367.9,215.3 368.6,217.2 369.2,219.2 369.8,221.2 370.4,223.2 371.0,225.2 371.5,227.2 372.0,229.2 372.4,231.3 372.9,233.3 373.2,235.3 373.6,237.4 373.9,239.4 374.2,241.5 374.4,243.6 374.6,245.6 374.8,247.7 374.9,249.8 375.0,251.8 375.0,253.9" fill="none" stroke="rgba(255,255,255,0.9019607843137255)" stroke-width="3"/>
    <polygon points="383.8,256.0 383.8,258.2 383.8,260.5 383.7,262.7 383.5,264.9 383.4,267.1 383.1,269.4 382.9,271.6 382.6,273.8 382.3,276.0 381.9,278.2 381.5,280.4 381.0,282.6 380.6,284.8 380.0,286.9 379.5,289.1 378.9,291.2 378.3,293.4 377.6,295.5 376.9,297.6 376.1,299.7 375.3,301.8 374.5,303.9 373.7,306.0 372.8,308.0 371.9,310.0 370.9,312.0 369.9,314.0 368.9,316.0 367.8,318.0 366.7,319.9 365.6,321.8 364.4,323.7 363.2,325.6 362.0,327.5 360.7,329.3 359.4,331.1 358.1,332.9 356.7,334.7 355.4,336.5 353.9,338.2 352.5,339.9 351.0,341.5 349.5,343.2 348.0,344.8 346.4,346.4 344.8,348.0 343.2,349.5 341.5,351.0 339.9,352.5 338.2,353.9 336.5,355.4 334.7,356.7 332.9,358.1 331.1,359.4 329.3,360.7 327.5,362.0 325.6,363.2 323.7,364.4 321.8,365.6 319.9,366.7 318.0,367.8 316.0,368.9 314.0,369.9 312.0,370.9 310.0,371.9 308.0,372.8 306.0,373.7 303.9,374.5 301.8,375.3 299.7,376.1 297.6,376.9 295.5,377.6 293.4,378.3 291.2,378.9 289.1,379.5 286.9,380.0 284.8,380.6 282.6,381.0 280.4,381.5 278.2,381.9 276.0,382.3 273.8,382.6 271.6,382.9 269.4,383.1 267.1,383.4 264.9,383.5 262.7,383.7 260.5,383.8 258.2,383.8 256.0,383.8 253.8,383.8 251.5,383.8 249.3,383.7 247.1,383.5 244.9,383.4 242.6,383.1 240.4,382.9 238.2,382.6 236.0,382.3 233.8,381.9 231.6,381.5 229.4,381.0 227.2,380.6 225.1,380.0 222.9,379.5 220.8,378.9 218.6,378.3 216.5,377.6 214.4,376.9 212.3,376.1 210.2,375.3 208.1,374.5 206.0,373.7 204.0,372.8 202.0,371.9 200.0,370.9 198.0,369.9 196.0,368.9 194.0,367.8 192.1,366.7 190.2,365.6 188.3,364.4 186.4,363.2 184.5,362.0 182.7,360.7 180.9,359.4 179.1,358.1 177.3,356.7 175.5,355.4 173.8,353.9 172.1,352.5 170.5,351.0 168.8,349.5 167.2,348.0 165.6,346.4 164.0,344.8 162.5,343.2 161.0,341.5 159.5,339.9 158.1,338.2 156.6,336.5 155.3,334.7 153.9,332.9 152.6,331.1 151.3,329.3 150.0,327.5 148.8,325.6 147.6,323.7 146.4,321.8 145.3,319.9 144.2,318.0 143.1,316.0 142.1,314.0 141.1,312.0 140.1,310.0 139.2,308.0 138.3,306.0 137.5,303.9 136.7,301.8 135.9,299.7 135.1,297.6 134.4,295.5 133.7,293.4 133.1,291.2 132.5,289.1 132.0,286.9 131.4,284.8 131.0,282.6 130.5,280.4 130.1,278.2 129.7,276.0 129.4,273.8 129.1,271.6 128.9,269.4 128.6,267.1 128.5,264.9 128.3,262.7 128.2,260.5 128.2,258.2 128.2,256.0 128.2,253.8 128.2,251.5 128.3,249.3 128.5,247.1 128.6,244.9 128.9,242.6 129.1,240.4 129.4,238.2 129.7,236.0 130.1,233.8 130.5,231.6 131.0,229.4 131.4,227.2 132.0,225.1 132.5,222.9 133.1,220.8 133.7,218.6 134.4,216.5 135.1,214.4 135.9,212.3 136.7,210.2 137.5,208.1 138.3,206.0 139.2,204.0 140.1,202.0 141.1,200.0 142.1,198.0 143.1,196.0 144.2,194.0 145.3,192.1 146.4,190.2 147.6,188.3 148.8,186.4 150.0,184.5 151.3,182.7 152.6,180.9 153.9,179.1 155.3,177.3 156.6,175.5 158.1,173.8 159.5,172.1 161.0,170.5 162.5,168.8 164.0,167.2 165.6,165.6 167.2,164.0 168.8,162.5 170.5,161.0 172.1,159.5 173.8,158.1 175.5,156.6 177.3,155.3 179.1,153.9 180.9,152.6 182.7,151.3 184.5,150.0 186.4,148.8 188.3,147.6 190.2,146.4 192.1,145.3 194.0,144.2 196.0,143.1 198.0,142.1 200.0,141.1 202.0,140.1 204.0,139.2 206.0,138.3 208.1,137.5 210.2,136.7 212.3,135.9 214.4,135.1 216.5,134.4 218.6,133.7 220.8,133.1 222.9,132.5 225.1,132.0 227.2,131.4 229.4,131.0 231.6,130.5 233.8,130.1 236.0,129.7 238.2,129.4 240.4,129.1 242.6,128.9 244.9,128.6 247.1,128.5 249.3,128.3 251.5,128.2 253.8,128.2 256.0,128.2 258.2,128.2 260.5,128.2 262.7,128.3 264.9,128.5 267.1,128.6 269.4,128.9 271.6,129.1 273.8,129.4 276.0,129.7 278.2,130.1 280.4,130.5 282.6,131.0 284.8,131.4 286.9,132.0 289.1,132.5 291.2,133.1 293.4,133.7 295.5,134.4 297.6,135.1 299.7,135.9 301.8,136.7 303.9,137.5 306.0,138.3 308.0,139.2 310.0,140.1 312.0,141.1 314.0,142.1 316.0,143.1 318.0,144.2 319.9,145.3 321.8,146.4 323.7,147.6 325.6,148.8 327.5,150.0 329.3,151.3 331.1,152.6 332.9,153.9 334.7,155.3 336.5,156.6 338.2,158.1 339.9,159.5 341.5,161.0 343.2,162.5 344.8,164.0 346.4,165.6 348.0,167.2 349.5,168.8 351.0,170.5 352.5,172.1 353.9,173.8 355.4,175.5 356.7,177.3 358.1,179.1 359.4,180.9 360.7,182.7 362.0,184.5 363.2,186.4 364.4,188.3 365.6,190.2 366.7,192.1 367.8,194.0 368.9,196.0 369.9,198.0 370.9,200.0 371.9,202.0 372.8,204.0 373.7,206.0 374.5,208.1 375.3,210.2 376.1,212.3 376.9,214.4 377.6,216.5 378.3,218.6 378.9,220.8 379.5,222.9 380.0,225.1 380.6,227.2 381.0,229.4 381.5,231.6 381.9,233.8 382.3,236.0 382.6,238.2 382.9,240.4 383.1,242.6 383.4,244.9 383.5,247.1 383.7,249.3 383.8,251.5 383.8,253.8" fill="none" stroke="rgba(255,255,255,0.803921568627451)" stroke-width="3"/>
    <polygon points="392.8,256.0 392.8,258.4 392.7,260.8 392.6,263.2 392.5,265.5 392.3,267.9 392.1,270.3 391.8,272.7 391.5,275.0 391.1,277.4 390.7,279.8 390.3,282.1 389.8,284.4 389.3,286.8 388.7,289.1 388.1,291.4 387.5,293.7 386.8,296.0 386.1,298.3 385.3,300.5 384.5,302.8 383.7,305.0 382.8,307.2 381.9,309.5 381.0,311.6 380.0,313.8 379.0,316.0 377.9,318.1 376.8,320.2 375.6,322.3 374.5,324.4 373.3,326.5 372.0,328.5 370.7,330.5 369.4,332.5 368.1,334.5 366.7,336.4 365.3,338.3 363.8,340.2 362.3,342.1 360.8,343.9 359.2,345.7 357.7,347.5 356.0,349.3 354.4,351.0 352.7,352.7 351.0,354.4 349.3,356.0 347.5,357.7 345.7,359.2 343.9,360.8 342.1,362.3 340.2,363.8 338.3,365.3 336.4,366.7 334.5,368.1 332.5,369.4 330.5,370.7 328.5,372.0 326.5,373.3 324.4,374.5 322.3,375.6 320.2,376.8 318.1,377.9 316.0,379.0 313.8,380.0 311.6,381.0 309.5,381.9 307.2,382.8 305.0,383.7 302.8,384.5 300.5,385.3 298.3,386.1 296.0,386.8 293.7,387.5 291.4,388.1 289.1,388.7 286.8,389.3 284.4,389.8 282.1,390.3 279.8,390.7 277.4,391.1 275.0,391.5 272.7,391.8 270.3,392.1 267.9,392.3 265.5,392.5 263.2,392.6 260.8,392.7 258.4,392.8 256.0,392.8 253.6,392.8 251.2,392.7 248.8,392.6 246.5,392.5 244.1,392.3 241.7,392.1 239.3,391.8 237.0,391.5 234.6,391.1 232.2,390.7 229.9,390.3 227.6,389.8 225.2,389.3 222.9,388.7 220.6,388.1 218.3,387.5 216.0,386.8 213.7,386.1 211.5,385.3 209.2,384.5 207.0,383.7 204.8,382.8 202.5,381.9 200.4,381.0 198.2,380.0 196.0,379.0 193.9,377.9 191.8,376.8 189.7,375.6 187.6,374.5 185.5,373.3 183.5,372.0 181.5,370.7 179.5,369.4 177.5,368.1 175.6,366.7 173.7,365.3 171.8,363.8 169.9,362.3 168.1,360.8 166.3,359.2 164.5,357.7 162.7,356.0 161.0,354.4 159.3,352.7 157.6,351.0 156.0,349.3 154.3,347.5 152.8,345.7 151.2,343.9 149.7,342.1 148.2,340.2 146.7,338.3 145.3,336.4 143.9,334.5 142.6,332.5 141.3,330.5 140.0,328.5 138.7,326.5 137.5,324.4 136.4,322.3 135.2,320.2 134.1,318.1 133.0,316.0 132.0,313.8 131.0,311.6 130.1,309.5 129.2,307.2 128.3,305.0 127.5,302.8 126.7,300.5 125.9,298.3 125.2,296.0 124.5,293.7 123.9,291.4 123.3,289.1 122.7,286.8 122.2,284.4 121.7,282.1 121.3,279.8 120.9,277.4 120.5,275.0 120.2,272.7 119.9,270.3 119.7,267.9 119.5,265.5 119.4,263.2 119.3,260.8 119.2,258.4 119.2,256.0 119.2,253.6 119.3,251.2 119.4,248.8 119.5,246.5 119.7,244.1 119.9,241.7 120.2,239.3 120.5,237.0 120.9,234.6 121.3,232.2 121.7,229.9 122.2,227.6 122.7,225.2 123.3,222.9 123.9,220.6 124.5,218.3 125.2,216.0 125.9,213.7 126.7,211.5 127.5,209.2 128.3,207.0 129.2,204.8 130.1,202.5 131.0,200.4 132.0,198.2 133.0,196.0 134.1,193.9 135.2,191.8 136.4,189.7 137.5,187.6 138.7,185.5 140.0,183.5 141.3,181.5 142.6,179.5 143.9,177.5 145.3,175.6 146.7,173.7 148.2,171.8 149.7,169.9 151.2,168.1 152.8,166.3 154.3,164.5 156.0,162.7 157.6,161.0 159.3,159.3 161.0,157.6 162.7,156.0 164.5,154.3 166.3,152.8 168.1,151.2 169.9,149.7 171.8,148.2 173.7,146.7 175.6,145.3 177.5,143.9 179.5,142.6 181.5,141.3 183.5,140.0 185.5,138.7 187.6,137.5 189.7,136.4 191.8,135.2 193.9,134.1 196.0,133.0 198.2,132.0 200.4,131.0 202.5,130.1 204.8,129.2 207.0,128.3 209.2,127.5 211.5,126.7 213.7,125.9 216.0,125.2 218.3,124.5 220.6,123.9 222.9,123.3 225.2,122.7 227.6,122.2 229.9,121.7 232.2,121.3 234.6,120.9 237.0,120.5 239.3,120.2 241.7,119.9 244.1,119.7 246.5,119.5 248.8,119.4 251.2,119.3 253.6,119.2 256.0,119.2 258.4,119.2 260.8,119.3 263.2,119.4 265.5,119.5 267.9,119.7 270.3,119.9 272.7,120.2 275.0,120.5 277.4,120.9 279.8,121.3 282.1,121.7 284.4,122.2 286.8,122.7 289.1,123.3 291.4,123.9 293.7,124.5 296.0,125.2 298.3,125.9 300.5,126.7 302.8,127.5 305.0,128.3 307.2,129.2 309.5,130.1 311.6,131.0 313.8,132.0 316.0,133.0 318.1,134.1 320.2,135.2 322.3,136.4 324.4,137.5 326.5,138.7 328.5,140.0 330.5,141.3 332.5,142.6 334.5,143.9 336.4,145.3 338.3,146.7 340.2,148.2 342.1,149.7 343.9,151.2 345.7,152.8 347.5,154.3 349.3,156.0 351.0,157.6 352.7,159.3 354.4,161.0 356.0,162.7 357.7,164.5 359.2,166.3 360.8,168.1 362.3,169.9 363.8,171.8 365.3,173.7 366.7,175.6 368.1,177.5 369.4,179.5 370.7,181.5 372.0,183.5 373.3,185.5 374.5,187.6 375.6,189.7 376.8,191.8 377.9,193.9 379.0,196.0 380.0,198.2 381.0,200.4 381.9,202.5 382.8,204.8 383.7,207.0 384.5,209.2 385.3,211.5 386.1,213.7 386.8,216.0 387.5,218.3 388.1,220.6 388.7,222.9 389.3,225.2 389.8,227.6 390.3,229.9 390.7,232.2 391.1,234.6 391.5,237.0 391.8,239.3 392.1,241.7 392.3,244.1 392.5,246.5 392.6,248.8 392.7,251.2 392.8,253.6" fill="none" stroke="rgba(255,255,255,0.7058823529411765)" stroke-width="3"/>
    <polygon points="401.9,256.0 401.9,258.5 401.8,261.1 401.7,263.6 401.6,266.2 401.4,268.7 401.1,271.3 400.8,273.8 400.5,276.3 400.1,278.8 399.7,281.3 399.2,283.8 398.7,286.3 398.2,288.8 397.6,291.3 396.9,293.8 396.3,296.2 395.5,298.7 394.8,301.1 394.0,303.5 393.1,305.9 392.2,308.3 391.3,310.7 390.3,313.0 389.3,315.4 388.2,317.7 387.2,320.0 386.0,322.2 384.8,324.5 383.6,326.7 382.4,329.0 381.1,331.2 379.7,333.3 378.4,335.5 377.0,337.6 375.5,339.7 374.1,341.8 372.5,343.8 371.0,345.8 369.4,347.8 367.8,349.8 366.1,351.7 364.4,353.6 362.7,355.5 361.0,357.4 359.2,359.2 357.4,361.0 355.5,362.7 353.6,364.4 351.7,366.1 349.8,367.8 347.8,369.4 345.8,371.0 343.8,372.5 341.8,374.1 339.7,375.5 337.6,377.0 335.5,378.4 333.3,379.7 331.2,381.1 329.0,382.4 326.7,383.6 324.5,384.8 322.2,386.0 320.0,387.2 317.7,388.2 315.4,389.3 313.0,390.3 310.7,391.3 308.3,392.2 305.9,393.1 303.5,394.0 301.1,394.8 298.7,395.5 296.2,396.3 293.8,396.9 291.3,397.6 288.8,398.2 286.3,398.7 283.8,399.2 281.3,399.7 278.8,400.1 276.3,400.5 273.8,400.8 271.3,401.1 268.7,401.4 266.2,401.6 263.6,401.7 261.1,401.8 258.5,401.9 256.0,401.9 253.5,401.9 250.9,401.8 248.4,401.7 245.8,401.6 243.3,401.4 240.7,401.1 238.2,400.8 235.7,400.5 233.2,400.1 230.7,399.7 228.2,399.2 225.7,398.7 223.2,398.2 220.7,397.6 218.2,396.9 215.8,396.3 213.3,395.5 210.9,394.8 208.5,394.0 206.1,393.1 203.7,392.2 201.3,391.3 199.0,390.3 196.6,389.3 194.3,388.2 192.0,387.2 189.8,386.0 187.5,384.8 185.3,383.6 183.0,382.4 180.8,381.1 178.7,379.7 176.5,378.4 174.4,377.0 172.3,375.5 170.2,374.1 168.2,372.5 166.2,371.0 164.2,369.4 162.2,367.8 160.3,366.1 158.4,364.4 156.5,362.7 154.6,361.0 152.8,359.2 151.0,357.4 149.3,355.5 147.6,353.6 145.9,351.7 144.2,349.8 142.6,347.8 141.0,345.8 139.5,343.8 137.9,341.8 136.5,339.7 135.0,337.6 133.6,335.5 132.3,333.3 130.9,331.2 129.6,329.0 128.4,326.7 127.2,324.5 126.0,322.2 124.8,320.0 123.8,317.7 122.7,315.4 121.7,313.0 120.7,310.7 119.8,308.3 118.9,305.9 118.0,303.5 117.2,301.1 116.5,298.7 115.7,296.2 115.1,293.8 114.4,291.3 113.8,288.8 113.3,286.3 112.8,283.8 112.3,281.3 111.9,278.8 111.5,276.3 111.2,273.8 110.9,271.3 110.6,268.7 110.4,266.2 110.3,263.6 110.2,261.1 110.1,258.5 110.1,256.0 110.1,253.5 110.2,250.9 110.3,248.4 110.4,245.8 110.6,243.3 110.9,240.7 111.2,238.2 111.5,235.7 111.9,233.2 112.3,230.7 112.8,228.2 113.3,225.7 113.8,223.2 114.4,220.7 115.1,218.2 115.7,215.8 116.5,213.3 117.2,210.9 118.0,208.5 118.9,206.1 119.8,203.7 120.7,201.3 121.7,199.0 122.7,196.6 123.8,194.3 124.8,192.0 126.0,189.8 127.2,187.5 128.4,185.3 129.6,183.0 130.9,180.8 132.3,178.7 133.6,176.5 135.0,174.4 136.5,172.3 137.9,170.2 139.5,168.2 141.0,166.2 142.6,164.2 144.2,162.2 145.9,160.3 147.6,158.4 149.3,156.5 151.0,154.6 152.8,152.8 154.6,151.0 156.5,149.3 158.4,147.6 160.3,145.9 162.2,144.2 164.2,142.6 166.2,141.0 168.2,139.5 170.2,137.9 172.3,136.5 174.4,135.0 176.5,133.6 178.7,132.3 180.8,130.9 183.0,129.6 185.3,128.4 187.5,127.2 189.8,126.0 192.0,124.8 194.3,123.8 196.6,122.7 199.0,121.7 201.3,120.7 203.7,119.8 206.1,118.9 208.5,118.0 210.9,117.2 213.3,116.5 215.8,115.7 218.2,115.1 220.7,114.4 223.2,113.8 225.7,113.3 228.2,112.8 230.7,112.3 233.2,111.9 235.7,111.5 238.2,111.2 240.7,110.9 243.3,110.6 245.8,110.4 248.4,110.3 250.9,110.2 253.5,110.1 256.0,110.1 258.5,110.1 261.1,110.2 263.6,110.3 266.2,110.4 268.7,110.6 271.3,110.9 273.8,111.2 276.3,111.5 278.8,111.9 281.3,112.3 283.8,112.8 286.3,113.3 288.8,113.8 291.3,114.4 293.8,115.1 296.2,115.7 298.7,116.5 301.1,117.2 303.5,118.0 305.9,118.9 308.3,119.8 310.7,120.7 313.0,121.7 315.4,122.7 317.7,123.8 320.0,124.8 322.2,126.0 324.5,127.2 326.7,128.4 329.0,129.6 331.2,130.9 333.3,132.3 335.5,133.6 337.6,135.0 339.7,136.5 341.8,137.9 343.8,139.5 345.8,141.0 347.8,142.6 349.8,144.2 351.7,145.9 353.6,147.6 355.5,149.3 357.4,151.0 359.2,152.8 361.0,154.6 362.7,156.5 364.4,158.4 366.1,160.3 367.8,162.2 369.4,164.2 371.0,166.2 372.5,168.2 374.1,170.2 375.5,172.3 377.0,174.4 378.4,176.5 379.7,178.7 381.1,180.8 382.4,183.0 383.6,185.3 384.8,187.5 386.0,189.8 387.2,192.0 388.2,194.3 389.3,196.6 390.3,199.0 391.3,201.3 392.2,203.7 393.1,206.1 394.0,208.5 394.8,210.9 395.5,213.3 396.3,215.8 396.9,218.2 397.6,220.7 398.2,223.2 398.7,225.7 399.2,228.2 399.7,230.7 400.1,233.2 400.5,235.7 400.8,238.2 401.1,240.7 401.4,243.3 401.6,245.8 401.7,248.4 401.8,250.9 401.9,253.5" fill="none" stroke="rgba(255,255,255,0.6078431372549019)" stroke-width="3"/>
    <polygon points="411.2,256.0 411.2,258.7 411.1,261.4 411.0,264.1 410.8,266.8 410.6,269.5 410.3,272.2 410.0,274.9 409.7,277.6 409.3,280.3 408.8,283.0 408.3,285.6 407.8,288.3 407.2,290.9 406.6,293.5 405.9,296.2 405.2,298.8 404.4,301.4 403.6,304.0 402.7,306.5 401.8,309.1 400.9,311.6 399.9,314.1 398.9,316.6 397.8,319.1 396.7,321.6 395.5,324.0 394.3,326.5 393.0,328.9 391.7,331.2 390.4,333.6 389.0,335.9 387.6,338.2 386.2,340.5 384.7,342.8 383.1,345.0 381.6,347.2 379.9,349.4 378.3,351.6 376.6,353.7 374.9,355.8 373.1,357.8 371.3,359.8 369.5,361.8 367.6,363.8 365.7,365.7 363.8,367.6 361.8,369.5 359.8,371.3 357.8,373.1 355.8,374.9 353.7,376.6 351.6,378.3 349.4,379.9 347.2,381.6 345.0,383.1 342.8,384.7 340.5,386.2 338.2,387.6 335.9,389.0 333.6,390.4 331.2,391.7 328.9,393.0 326.5,394.3 324.0,395.5 321.6,396.7 319.1,397.8 316.6,398.9 314.1,399.9 311.6,400.9 309.1,401.8 306.5,402.7 304.0,403.6 301.4,404.4 298.8,405.2 296.2,405.9 293.5,406.6 290.9,407.2 288.3,407.8 285.6,408.3 283.0,408.8 280.3,409.3 277.6,409.7 274.9,410.0 272.2,410.3 269.5,410.6 266.8,410.8 264.1,411.0 261.4,411.1 258.7,411.2 256.0,411.2 253.3,411.2 250.6,411.1 247.9,411.0 245.2,410.8 242.5,410.6 239.8,410.3 237.1,410.0 234.4,409.7 231.7,409.3 229.0,408.8 226.4,408.3 223.7,407.8 221.1,407.2 218.5,406.6 215.8,405.9 213.2,405.2 210.6,404.4 208.0,403.6 205.5,402.7 202.9,401.8 200.4,400.9 197.9,399.9 195.4,398.9 192.9,397.8 190.4,396.7 188.0,395.5 185.5,394.3 183.1,393.0 180.8,391.7 178.4,390.4 176.1,389.0 173.8,387.6 171.5,386.2 169.2,384.7 167.0,383.1 164.8,381.6 162.6,379.9 160.4,378.3 158.3,376.6 156.2,374.9 154.2,373.1 152.2,371.3 150.2,369.5 148.2,367.6 146.3,365.7 144.4,363.8 142.5,361.8 140.7,359.8 138.9,357.8 137.1,355.8 135.4,353.7 133.7,351.6 132.1,349.4 130.4,347.2 128.9,345.0 127.3,342.8 125.8,340.5 124.4,338.2 123.0,335.9 121.6,333.6 120.3,331.2 119.0,328.9 117.7,326.5 116.5,324.0 115.3,321.6 114.2,319.1 113.1,316.6 112.1,314.1 111.1,311.6 110.2,309.1 109.3,306.5 108.4,304.0 107.6,301.4 106.8,298.8 106.1,296.2 105.4,293.5 104.8,290.9 104.2,288.3 103.7,285.6 103.2,283.0 102.7,280.3 102.3,277.6 102.0,274.9 101.7,272.2 101.4,269.5 101.2,266.8 101.0,264.1 100.9,261.4 100.8,258.7 100.8,256.0 100.8,253.3 100.9,250.6 101.0,247.9 101.2,245.2 101.4,242.5 101.7,239.8 102.0,237.1 102.3,234.4 102.7,231.7 103.2,229.0 103.7,226.4 104.2,223.7 104.8,221.1 105.4,218.5 106.1,215.8 106.8,213.2 107.6,210.6 108.4,208.0 109.3,205.5 110.2,202.9 111.1,200.4 112.1,197.9 113.1,195.4 114.2,192.9 115.3,190.4 116.5,188.0 117.7,185.5 119.0,183.1 120.3,180.8 121.6,178.4 123.0,176.1 124.4,173.8 125.8,171.5 127.3,169.2 128.9,167.0 130.4,164.8 132.1,162.6 133.7,160.4 135.4,158.3 137.1,156.2 138.9,154.2 140.7,152.2 142.5,150.2 144.4,148.2 146.3,146.3 148.2,144.4 150.2,142.5 152.2,140.7 154.2,138.9 156.2,137.1 158.3,135.4 160.4,133.7 162.6,132.1 164.8,130.4 167.0,128.9 169.2,127.3 171.5,125.8 173.8,124.4 176.1,123.0 178.4,121.6 180.8,120.3 183.1,119.0 185.5,117.7 188.0,116.5 190.4,115.3 192.9,114.2 195.4,113.1 197.9,112.1 200.4,111.1 202.9,110.2 205.5,109.3 208.0,108.4 210.6,107.6 213.2,106.8 215.8,106.1 218.5,105.4 221.1,104.8 223.7,104.2 226.4,103.7 229.0,103.2 231.7,102.7 234.4,102.3 237.1,102.0 239.8,101.7 242.5,101.4 245.2,101.2 247.9,101.0 250.6,100.9 253.3,100.8 256.0,100.8 258.7,100.8 261.4,100.9 264.1,101.0 266.8,101.2 269.5,101.4 272.2,101.7 274.9,102.0 277.6,102.3 280.3,102.7 283.0,103.2 285.6,103.7 288.3,104.2 290.9,104.8 293.5,105.4 296.2,106.1 298.8,106.8 301.4,107.6 304.0,108.4 306.5,109.3 309.1,110.2 311.6,111.1 314.1,112.1 316.6,113.1 319.1,114.2 321.6,115.3 324.0,116.5 326.5,117.7 328.9,119.0 331.2,120.3 333.6,121.6 335.9,123.0 338.2,124.4 340.5,125.8 342.8,127.3 345.0,128.9 347.2,130.4 349.4,132.1 351.6,133.7 353.7,135.4 355.8,137.1 357.8,138.9 359.8,140.7 361.8,142.5 363.8,144.4 365.7,146.3 367.6,148.2 369.5,150.2 371.3,152.2 373.1,154.2 374.9,156.2 376.6,158.3 378.3,160.4 379.9,162.6 381.6,164.8 383.1,167.0 384.7,169.2 386.2,171.5 387.6,173.8 389.0,176.1 390.4,178.4 391.7,180.8 393.0,183.1 394.3,185.5 395.5,188.0 396.7,190.4 397.8,192.9 398.9,195.4 399.9,197.9 400.9,200.4 401.8,202.9 402.7,205.5 403.6,208.0 404.4,210.6 405.2,213.2 405.9,215.8 406.6,218.5 407.2,221.1 407.8,223.7 408.3,226.4 408.8,229.0 409.3,231.7 409.7,234.4 410.0,237.1 410.3,239.8 410.6,242.5 410.8,245.2 411.0,247.9 411.1,250.6 411.2,253.3" fill="none" stroke="rgba(255,255,255,0.5098039215686274)" stroke-width="3"/>
    <polygon points="420.6,256.0 420.6,258.9 420.5,261.7 420.4,264.6 420.2,267.5 420.0,270.3 419.7,273.2 419.4,276.1 419.0,278.9 418.6,281.8 418.1,284.6 417.6,287.4 417.0,290.2 416.4,293.0 415.7,295.8 415.0,298.6 414.3,301.4 413.4,304.1 412.6,306.9 411.7,309.6 410.7,312.3 409.7,315.0 408.7,317.7 407.6,320.3 406.4,323.0 405.2,325.6 404.0,328.2 402.7,330.7 401.4,333.3 400.0,335.8 398.6,338.3 397.1,340.8 395.6,343.2 394.1,345.7 392.5,348.1 390.9,350.4 389.2,352.8 387.5,355.1 385.7,357.4 383.9,359.6 382.1,361.8 380.3,364.0 378.4,366.2 376.4,368.3 374.4,370.4 372.4,372.4 370.4,374.4 368.3,376.4 366.2,378.4 364.0,380.3 361.8,382.1 359.6,383.9 357.4,385.7 355.1,387.5 352.8,389.2 350.4,390.9 348.1,392.5 345.7,394.1 343.2,395.6 340.8,397.1 338.3,398.6 335.8,400.0 333.3,401.4 330.7,402.7 328.2,404.0 325.6,405.2 323.0,406.4 320.3,407.6 317.7,408.7 315.0,409.7 312.3,410.7 309.6,411.7 306.9,412.6 304.1,413.4 301.4,414.3 298.6,415.0 295.8,415.7 293.0,416.4 290.2,417.0 287.4,417.6 284.6,418.1 281.8,418.6 278.9,419.0 276.1,419.4 273.2,419.7 270.3,420.0 267.5,420.2 264.6,420.4 261.7,420.5 258.9,420.6 256.0,420.6 253.1,420.6 250.3,420.5 247.4,420.4 244.5,420.2 241.7,420.0 238.8,419.7 235.9,419.4 233.1,419.0 230.2,418.6 227.4,418.1 224.6,417.6 221.8,417.0 219.0,416.4 216.2,415.7 213.4,415.0 210.6,414.3 207.9,413.4 205.1,412.6 202.4,411.7 199.7,410.7 197.0,409.7 194.3,408.7 191.7,407.6 189.0,406.4 186.4,405.2 183.8,404.0 181.3,402.7 178.7,401.4 176.2,400.0 173.7,398.6 171.2,397.1 168.8,395.6 166.3,394.1 163.9,392.5 161.6,390.9 159.2,389.2 156.9,387.5 154.6,385.7 152.4,383.9 150.2,382.1 148.0,380.3 145.8,378.4 143.7,376.4 141.6,374.4 139.6,372.4 137.6,370.4 135.6,368.3 133.6,366.2 131.7,364.0 129.9,361.8 128.1,359.6 126.3,357.4 124.5,355.1 122.8,352.8 121.1,350.4 119.5,348.1 117.9,345.7 116.4,343.2 114.9,340.8 113.4,338.3 112.0,335.8 110.6,333.3 109.3,330.7 108.0,328.2 106.8,325.6 105.6,323.0 104.4,320.3 103.3,317.7 102.3,315.0 101.3,312.3 100.3,309.6 99.4,306.9 98.6,304.1 97.7,301.4 97.0,298.6 96.3,295.8 95.6,293.0 95.0,290.2 94.4,287.4 93.9,284.6 93.4,281.8 93.0,278.9 92.6,276.1 92.3,273.2 92.0,270.3 91.8,267.5 91.6,264.6 91.5,261.7 91.4,258.9 91.4,256.0 91.4,253.1 91.5,250.3 91.6,247.4 91.8,244.5 92.0,241.7 92.3,238.8 92.6,235.9 93.0,233.1 93.4,230.2 93.9,227.4 94.4,224.6 95.0,221.8 95.6,219.0 96.3,216.2 97.0,213.4 97.7,210.6 98.6,207.9 99.4,205.1 100.3,202.4 101.3,199.7 102.3,197.0 103.3,194.3 104.4,191.7 105.6,189.0 106.8,186.4 108.0,183.8 109.3,181.3 110.6,178.7 112.0,176.2 113.4,173.7 114.9,171.2 116.4,168.8 117.9,166.3 119.5,163.9 121.1,161.6 122.8,159.2 124.5,156.9 126.3,154.6 128.1,152.4 129.9,150.2 131.7,148.0 133.6,145.8 135.6,143.7 137.6,141.6 139.6,139.6 141.6,137.6 143.7,135.6 145.8,133.6 148.0,131.7 150.2,129.9 152.4,128.1 154.6,126.3 156.9,124.5 159.2,122.8 161.6,121.1 163.9,119.5 166.3,117.9 168.8,116.4 171.2,114.9 173.7,113.4 176.2,112.0 178.7,110.6 181.3,109.3 183.8,108.0 186.4,106.8 189.0,105.6 191.7,104.4 194.3,103.3 197.0,102.3 199.7,101.3 202.4,100.3 205.1,99.4 207.9,98.6 210.6,97.7 213.4,97.0 216.2,96.3 219.0,95.6 221.8,95.0 224.6,94.4 227.4,93.9 230.2,93.4 233.1,93.0 235.9,92.6 238.8,92.3 241.7,92.0 244.5,91.8 247.4,91.6 250.3,91.5 253.1,91.4 256.0,91.4 258.9,91.4 261.7,91.5 264.6,91.6 267.5,91.8 270.3,92.0 273.2,92.3 276.1,92.6 278.9,93.0 281.8,93.4 284.6,93.9 287.4,94.4 290.2,95.0 293.0,95.6 295.8,96.3 298.6,97.0 301.4,97.7 304.1,98.6 306.9,99.4 309.6,100.3 312.3,101.3 315.0,102.3 317.7,103.3 320.3,104.4 323.0,105.6 325.6,106.8 328.2,108.0 330.7,109.3 333.3,110.6 335.8,112.0 338.3,113.4 340.8,114.9 343.2,116.4 345.7,117.9 348.1,119.5 350.4,121.1 352.8,122.8 355.1,124.5 357.4,126.3 359.6,128.1 361.8,129.9 364.0,131.7 366.2,133.6 368.3,135.6 370.4,137.6 372.4,139.6 374.4,141.6 376.4,143.7 378.4,145.8 380.3,148.0 382.1,150.2 383.9,152.4 385.7,154.6 387.5,156.9 389.2,159.2 390.9,161.6 392.5,163.9 394.1,166.3 395.6,168.8 397.1,171.2 398.6,173.7 400.0,176.2 401.4,178.7 402.7,181.3 404.0,183.8 405.2,186.4 406.4,189.0 407.6,191.7 408.7,194.3 409.7,197.0 410.7,199.7 411.7,202.4 412.6,205.1 413.4,207.9 414.3,210.6 415.0,213.4 415.7,216.2 416.4,219.0 417.0,221.8 417.6,224.6 418.1,227.4 418.6,230.2 419.0,233.1 419.4,235.9 419.7,238.8 420.0,241.7 420.2,244.5 420.4,247.4 420.5,250.3 420.6,253.1" fill="none" stroke="rgba(255,255,255,0.4117647058823529)" stroke-width="3"/>
    <polygon points="430.2,256.0 430.2,259.0 430.1,262.1 430.0,265.1 429.8,268.2 429.6,271.2 429.3,274.2 428.9,277.2 428.5,280.2 428.1,283.3 427.6,286.3 427.0,289.2 426.4,292.2 425.8,295.2 425.1,298.2 424.3,301.1 423.5,304.0 422.6,306.9 421.7,309.8 420.7,312.7 419.7,315.6 418.7,318.4 417.6,321.3 416.4,324.1 415.2,326.9 413.9,329.6 412.6,332.4 411.2,335.1 409.8,337.8 408.4,340.5 406.9,343.1 405.4,345.7 403.8,348.3 402.1,350.9 400.5,353.4 398.7,355.9 397.0,358.4 395.2,360.9 393.3,363.3 391.4,365.7 389.5,368.0 387.5,370.3 385.5,372.6 383.4,374.8 381.3,377.0 379.2,379.2 377.0,381.3 374.8,383.4 372.6,385.5 370.3,387.5 368.0,389.5 365.7,391.4 363.3,393.3 360.9,395.2 358.4,397.0 355.9,398.7 353.4,400.5 350.9,402.1 348.3,403.8 345.7,405.4 343.1,406.9 340.5,408.4 337.8,409.8 335.1,411.2 332.4,412.6 329.6,413.9 326.9,415.2 324.1,416.4 321.3,417.6 318.4,418.7 315.6,419.7 312.7,420.7 309.8,421.7 306.9,422.6 304.0,423.5 301.1,424.3 298.2,425.1 295.2,425.8 292.2,426.4 289.2,427.0 286.3,427.6 283.3,428.1 280.2,428.5 277.2,428.9 274.2,429.3 271.2,429.6 268.2,429.8 265.1,430.0 262.1,430.1 259.0,430.2 256.0,430.2 253.0,430.2 249.9,430.1 246.9,430.0 243.8,429.8 240.8,429.6 237.8,429.3 234.8,428.9 231.8,428.5 228.7,428.1 225.7,427.6 222.8,427.0 219.8,426.4 216.8,425.8 213.8,425.1 210.9,424.3 208.0,423.5 205.1,422.6 202.2,421.7 199.3,420.7 196.4,419.7 193.6,418.7 190.7,417.6 187.9,416.4 185.1,415.2 182.4,413.9 179.6,412.6 176.9,411.2 174.2,409.8 171.5,408.4 168.9,406.9 166.3,405.4 163.7,403.8 161.1,402.1 158.6,400.5 156.1,398.7 153.6,397.0 151.1,395.2 148.7,393.3 146.3,391.4 144.0,389.5 141.7,387.5 139.4,385.5 137.2,383.4 135.0,381.3 132.8,379.2 130.7,377.0 128.6,374.8 126.5,372.6 124.5,370.3 122.5,368.0 120.6,365.7 118.7,363.3 116.8,360.9 115.0,358.4 113.3,355.9 111.5,353.4 109.9,350.9 108.2,348.3 106.6,345.7 105.1,343.1 103.6,340.5 102.2,337.8 100.8,335.1 99.4,332.4 98.1,329.6 96.8,326.9 95.6,324.1 94.4,321.3 93.3,318.4 92.3,315.6 91.3,312.7 90.3,309.8 89.4,306.9 88.5,304.0 87.7,301.1 86.9,298.2 86.2,295.2 85.6,292.2 85.0,289.2 84.4,286.3 83.9,283.3 83.5,280.2 83.1,277.2 82.7,274.2 82.4,271.2 82.2,268.2 82.0,265.1 81.9,262.1 81.8,259.0 81.8,256.0 81.8,253.0 81.9,249.9 82.0,246.9 82.2,243.8 82.4,240.8 82.7,237.8 83.1,234.8 83.5,231.8 83.9,228.7 84.4,225.7 85.0,222.8 85.6,219.8 86.2,216.8 86.9,213.8 87.7,210.9 88.5,208.0 89.4,205.1 90.3,202.2 91.3,199.3 92.3,196.4 93.3,193.6 94.4,190.7 95.6,187.9 96.8,185.1 98.1,182.4 99.4,179.6 100.8,176.9 102.2,174.2 103.6,171.5 105.1,168.9 106.6,166.3 108.2,163.7 109.9,161.1 111.5,158.6 113.3,156.1 115.0,153.6 116.8,151.1 118.7,148.7 120.6,146.3 122.5,144.0 124.5,141.7 126.5,139.4 128.6,137.2 130.7,135.0 132.8,132.8 135.0,130.7 137.2,128.6 139.4,126.5 141.7,124.5 144.0,122.5 146.3,120.6 148.7,118.7 151.1,116.8 153.6,115.0 156.1,113.3 158.6,111.5 161.1,109.9 163.7,108.2 166.3,106.6 168.9,105.1 171.5,103.6 174.2,102.2 176.9,100.8 179.6,99.4 182.4,98.1 185.1,96.8 187.9,95.6 190.7,94.4 193.6,93.3 196.4,92.3 199.3,91.3 202.2,90.3 205.1,89.4 208.0,88.5 210.9,87.7 213.8,86.9 216.8,86.2 219.8,85.6 222.8,85.0 225.7,84.4 228.7,83.9 231.8,83.5 234.8,83.1 237.8,82.7 240.8,82.4 243.8,82.2 246.9,82.0 249.9,81.9 253.0,81.8 256.0,81.8 259.0,81.8 262.1,81.9 265.1,82.0 268.2,82.2 271.2,82.4 274.2,82.7 277.2,83.1 280.2,83.5 283.3,83.9 286.3,84.4 289.2,85.0 292.2,85.6 295.2,86.2 298.2,86.9 301.1,87.7 304.0,88.5 306.9,89.4 309.8,90.3 312.7,91.3 315.6,92.3 318.4,93.3 321.3,94.4 324.1,95.6 326.9,96.8 329.6,98.1 332.4,99.4 335.1,100.8 337.8,102.2 340.5,103.6 343.1,105.1 345.7,106.6 348.3,108.2 350.9,109.9 353.4,111.5 355.9,113.3 358.4,115.0 360.9,116.8 363.3,118.7 365.7,120.6 368.0,122.5 370.3,124.5 372.6,126.5 374.8,128.6 377.0,130.7 379.2,132.8 381.3,135.0 383.4,137.2 385.5,139.4 387.5,141.7 389.5,144.0 391.4,146.3 393.3,148.7 395.2,151.1 397.0,153.6 398.7,156.1 400.5,158.6 402.1,161.1 403.8,163.7 405.4,166.3 406.9,168.9 408.4,171.5 409.8,174.2 411.2,176.9 412.6,179.6 413.9,182.4 415.2,185.1 416.4,187.9 417.6,190.7 418.7,193.6 419.7,196.4 420.7,199.3 421.7,202.2 422.6,205.1 423.5,208.0 424.3,210.9 425.1,213.8 425.8,216.8 426.4,219.8 427.0,222.8 427.6,225.7 428.1,228.7 428.5,231.8 428.9,234.8 429.3,237.8 429.6,240.8 429.8,243.8 430.0,246.9 430.1,249.9 430.2,253.0" fill="none" stroke="rgba(255,255,255,0.3137254901960784)" stroke-width="3"/>
  </g>
  <g>
    <circle cx="256" cy="256" r="8" fill="white"/>
  </g>
</svg>