<?xml version="1.0" encoding="UTF-8"?>
<svg xmlns="http://www.w3.org/2000/svg" viewBox="0 0 512 512" width="512" height="512">
  <rect width="100%" height="100%" fill="#000000"/>
  <g fill="white">
    <circle cx="195.7" cy="277.4" r="3.0" fill="rgba(255,255,255,0.64)"/>
    <circle cx="194.2" cy="275.6" r="3.0" fill="rgba(255,255,255,0.63)"/>
    <circle cx="192.8" cy="273.6" r="3.0" fill="rgba(255,255,255,0.63)"/>
    <circle cx="191.4" cy="271.6" r="3.0" fill="rgba(255,255,255,0.62)"/>
    <circle cx="190.2" cy="269.5" r="3.0" fill="rgba(255,255,255,0.62)"/>
    <circle cx="188.9" cy="267.3" r="3.0" fill="rgba(255,255,255,0.61)"/>
    <circle cx="187.8" cy="265.0" r="3.0" fill="rgba(255,255,255,0.61)"/>
    <circle cx="186.7" cy="262.7" r="3.0" fill="rgba(255,255,255,0.60)"/>
    <circle cx="185.7" cy="260.3" r="3.0" fill="rgba(255,255,255,0.60)"/>
    <circle cx="184.8" cy="257.9" r="3.0" fill="rgba(255,255,255,0.60)"/>
    <circle cx="184.0" cy="255.4" r="3.0" fill="rgba(255,255,255,0.59)"/>
    <circle cx="183.3" cy="252.8" r="3.0" fill="rgba(255,255,255,0.59)"/>
    <circle cx="182.6" cy="250.2" r="3.0" fill="rgba(255,255,255,0.58)"/>
    <circle cx="182.1" cy="247.6" r="3.0" fill="rgba(255,255,255,0.58)"/>
    <circle cx="181.6" cy="244.9" r="3.0" fill="rgba(255,255,255,0.57)"/>
    <circle cx="181.3" cy="242.1" r="3.0" fill="rgba(255,255,255,0.57)"/>
    <circle cx="181.0" cy="239.4" r="3.0" fill="rgba(255,255,255,0.56)"/>
    <circle cx="180.9" cy="236.5" r="3.0" fill="rgba(255,255,255,0.56)"/>
    <circle cx="180.8" cy="233.7" r="3.0" fill="rgba(255,255,255,0.55)"/>
    <circle cx="180.9" cy="230.8" r="3.0" fill="rgba(255,255,255,0.55)"/>
    <circle cx="181.1" cy="227.9" r="3.0" fill="rgba(255,255,255,0.55)"/>
    <circle cx="181.4" cy="225.0" r="3.0" fill="rgba(255,255,255,0.54)"/>
    <circle cx="181.8" cy="222.1" r="3.0" fill="rgba(255,255,255,0.54)"/>
    <circle cx="182.3" cy="219.2" r="3.0" fill="rgba(255,255,255,0.53)"/>
    <circle cx="182.9" cy="216.2" r="3.0" fill="rgba(255,255,255,0.53)"/>
    <circle cx="183.7" cy="213.3" r="3.0" fill="rgba(255,255,255,0.52)"/>
    <circle cx="184.5" cy="210.4" r="3.0" fill="rgba(255,255,255,0.52)"/>
    <circle cx="185.5" cy="207.4" r="3.0" fill="rgba(255,255,255,0.51)"/>
    <circle cx="186.6" cy="204.5" r="3.0" fill="rgba(255,255,255,0.51)"/>
    <circle cx="187.8" cy="201.6" r="3.0" fill="rgba(255,255,255,0.50)"/>
    <circle cx="189.2" cy="198.7" r="3.0" fill="rgba(255,255,255,0.50)"/>
    <circle cx="190.6" cy="195.9" r="3.0" fill="rgba(255,255,255,0.50)"/>
    <circle cx="192.2" cy="193.1" r="3.0" fill="rgba(255,255,255,0.49)"/>
    <circle cx="193.9" cy="190.3" r="3.0" fill="rgba(255,255,255,0.49)"/>
    <circle cx="195.7" cy="187.6" r="3.0" fill="rgba(255,255,255,0.48)"/>
    <circle cx="197.6" cy="184.9" r="3.0" fill="rgba(255,255,255,0.48)"/>
    <circle cx="199.7" cy="182.3" r="3.0" fill="rgba(255,255,255,0.47)"/>
    <circle cx="201.8" cy="179.7" r="3.0" fill="rgba(255,255,255,0.47)"/>
    <circle cx="204.1" cy="177.2" r="3.0" fill="rgba(255,255,255,0.46)"/>
    <circle cx="206.5" cy="174.7" r="3.0" fill="rgba(255,255,255,0.46)"/>
    <circle cx="208.9" cy="172.3" r="2.0" fill="rgba(255,255,255,0.45)"/>
    <circle cx="211.5" cy="170.0" r="2.0" fill="rgba(255,255,255,0.45)"/>
    <circle cx="214.2" cy="167.8" r="2.0" fill="rgba(255,255,255,0.45)"/>
    <circle cx="217.0" cy="165.7" r="2.0" fill="rgba(255,255,255,0.44)"/>
    <circle cx="219.9" cy="163.6" r="2.0" fill="rgba(255,255,255,0.44)"/>
    <circle cx="222.9" cy="161.6" r="2.0" fill="rgba(255,255,255,0.43)"/>
    <circle cx="226.0" cy="159.8" r="2.0" fill="rgba(255,255,255,0.43)"/>
    <circle cx="229.2" cy="158.0" r="2.0" fill="rgba(255,255,255,0.42)"/>
    <circle cx="232.4" cy="156.4" r="2.0" fill="rgba(255,255,255,0.42)"/>
    <circle cx="235.8" cy="154.8" r="2.0" fill="rgba(255,255,255,0.41)"/>
    <circle cx="239.2" cy="153.4" r="2.0" fill="rgba(255,255,255,0.41)"/>
    <circle cx="242.7" cy="152.0" r="2.0" fill="rgba(255,255,255,0.40)"/>
    <circle cx="246.3" cy="150.9" r="2.0" fill="rgba(255,255,255,0.40)"/>
    <circle cx="249.9" cy="149.8" r="2.0" fill="rgba(255,255,255,0.40)"/>
    <circle cx="253.6" cy="148.8" r="2.0" fill="rgba(255,255,255,0.39)"/>
    <circle cx="257.4" cy="148.0" r="2.0" fill="rgba(255,255,255,0.39)"/>
    <circle cx="261.2" cy="147.3" r="2.0" fill="rgba(255,255,255,0.38)"/>
    <circle cx="265.0" cy="146.8" r="2.0" fill="rgba(255,255,255,0.38)"/>
    <circle cx="269.0" cy="146.4" r="2.0" fill="rgba(255,255,255,0.37)"/>
    <circle cx="272.9" cy="146.1" r="2.0" fill="rgba(255,255,255,0.37)"/>
    <circle cx="276.9" cy="146.0" r="2.0" fill="rgba(255,255,255,0.36)"/>
    <circle cx="280.9" cy="146.0" r="2.0" fill="rgba(255,255,255,0.36)"/>
    <circle cx="284.9" cy="146.1" r="2.0" fill="rgba(255,255,255,0.35)"/>
    <circle cx="289.0" cy="146.5" r="2.0" fill="rgba(255,255,255,0.35)"/>
    <circle cx="293.1" cy="146.9" r="2.0" fill="rgba(255,255,255,0.35)"/>
    <circle cx="297.1" cy="147.5" r="2.0" fill="rgba(255,255,255,0.34)"/>
    <circle cx="301.2" cy="148.3" r="2.0" fill="rgba(255,255,255,0.34)"/>
    <circle cx="305.3" cy="149.2" r="2.0" fill="rgba(255,255,255,0.33)"/>
    <circle cx="309.4" cy="150.3" r="2.0" fill="rgba(255,255,255,0.33)"/>
    <circle cx="313.4" cy="151.5" r="2.0" fill="rgba(255,255,255,0.32)"/>
    <circle cx="317.5" cy="152.9" r="2.0" fill="rgba(255,255,255,0.32)"/>
    <circle cx="321.5" cy="154.5" r="2.0" fill="rgba(255,255,255,0.31)"/>
    <circle cx="325.4" cy="156.2" r="2.0" fill="rgba(255,255,255,0.31)"/>
    <circle cx="329.4" cy="158.0" r="2.0" fill="rgba(255,255,255,0.30)"/>
    <circle cx="333.2" cy="160.0" r="2.0" fill="rgba(255,255,255,0.30)"/>
    <circle cx="337.1" cy="162.2" r="2.0" fill="rgba(255,255,255,0.30)"/>
    <circle cx="340.9" cy="164.5" r="2.0" fill="rgba(255,255,255,0.29)"/>
    <circle cx="344.6" cy="166.9" r="2.0" fill="rgba(255,255,255,0.29)"/>
    <circle cx="348.2" cy="169.5" r="2.0" fill="rgba(255,255,255,0.28)"/>
    <circle cx="351.8" cy="172.3" r="2.0" fill="rgba(255,255,255,0.28)"/>
    <circle cx="355.3" cy="175.2" r="2.0" fill="rgba(255,255,255,0.27)"/>
    <circle cx="358.7" cy="178.2" r="2.0" fill="rgba(255,255,255,0.27)"/>
    <circle cx="362.0" cy="181.4" r="2.0" fill="rgba(255,255,255,0.26)"/>
    <circle cx="365.2" cy="184.7" r="2.0" fill="rgba(255,255,255,0.26)"/>
    <circle cx="368.3" cy="188.2" r="2.0" fill="rgba(255,255,255,0.25)"/>
    <circle cx="371.3" cy="191.8" r="2.0" fill="rgba(255,255,255,0.25)"/>
    <circle cx="374.2" cy="195.5" r="2.0" fill="rgba(255,255,255,0.25)"/>
    <circle cx="377.0" cy="199.3" r="2.0" fill="rgba(255,255,255,0.24)"/>
    <circle cx="379.6" cy="203.3" r="2.0" fill="rgba(255,255,255,0.24)"/>
    <circle cx="382.1" cy="207.3" r="2.0" fill="rgba(255,255,255,0.23)"/>
    <circle cx="384.5" cy="211.5" r="2.0" fill="rgba(255,255,255,0.23)"/>
    <circle cx="386.8" cy="215.8" r="2.0" fill="rgba(255,255,255,0.22)"/>
    <circle cx="388.9" cy="220.2" r="2.0" fill="rgba(255,255,255,0.22)"/>
    <circle cx="390.8" cy="224.7" r="2.0" fill="rgba(255,255,255,0.21)"/>
    <circle cx="392.6" cy="229.3" r="2.0" fill="rgba(255,255,255,0.21)"/>
    <circle cx="394.3" cy="233.9" r="2.0" fill="rgba(255,255,255,0.20)"/>
    <circle cx="395.7" cy="238.7" r="2.0" fill="rgba(255,255,255,0.20)"/>
    <circle cx="397.0" cy="243.5" r="2.0" fill="rgba(255,255,255,0.20)"/>
    <circle cx="398.2" cy="248.4" r="2.0" fill="rgba(255,255,255,0.19)"/>
    <circle cx="399.2" cy="253.4" r="2.0" fill="rgba(255,255,255,0.19)"/>
    <circle cx="400.0" cy="258.4" r="1.0" fill="rgba(255,255,255,0.18)"/>
    <circle cx="400.6" cy="263.5" r="1.0" fill="rgba(255,255,255,0.18)"/>
    <circle cx="401.1" cy="268.6" r="1.0" fill="rgba(255,255,255,0.17)"/>
    <circle cx="401.3" cy="273.8" r="1.0" fill="rgba(255,255,255,0.17)"/>
    <circle cx="401.4" cy="279.0" r="1.0" fill="rgba(255,255,255,0.16)"/>
    <circle cx="401.3" cy="284.2" r="1.0" fill="rgba(255,255,255,0.16)"/>
    <circle cx="401.0" cy="289.5" r="1.0" fill="rgba(255,255,255,0.15)"/>
    <circle cx="400.5" cy="294.7" r="1.0" fill="rgba(255,255,255,0.15)"/>
    <circle cx="399.8" cy="300.0" r="1.0" fill="rgba(255,255,255,0.15)"/>
    <circle cx="399.0" cy="305.3" r="1.0" fill="rgba(255,255,255,0.14)"/>
    <circle cx="397.9" cy="310.5" r="1.0" fill="rgba(255,255,255,0.14)"/>
    <circle cx="396.6" cy="315.8" r="1.0" fill="rgba(255,255,255,0.13)"/>
    <circle cx="395.2" cy="321.0" r="1.0" fill="rgba(255,255,255,0.13)"/>
    <circle cx="393.5" cy="326.2" r="1.0" fill="rgba(255,255,255,0.12)"/>
    <circle cx="391.7" cy="331.3" r="1.0" fill="rgba(255,255,255,0.12)"/>
    <circle cx="389.7" cy="336.4" r="1.0" fill="rgba(255,255,255,0.11)"/>
    <circle cx="387.4" cy="341.5" r="1.0" fill="rgba(255,255,255,0.11)"/>
    <circle cx="385.0" cy="346.5" r="1.0" fill="rgba(255,255,255,0.10)"/>
    <circle cx="382.4" cy="351.5" r="1.0" fill="rgba(255,255,255,0.10)"/>
    <circle cx="379.6" cy="356.3" r="1.0" fill="rgba(255,255,255,0.10)"/>
    <circle cx="376.6" cy="361.1" r="1.0" fill="rgba(255,255,255,0.09)"/>
    <circle cx="373.5" cy="365.8" r="1.0" fill="rgba(255,255,255,0.09)"/>
    <circle cx="370.1" cy="370.4" r="1.0" fill="rgba(255,255,255,0.08)"/>
    <circle cx="366.6" cy="374.9" r="1.0" fill="rgba(255,255,255,0.08)"/>
    <circle cx="362.9" cy="379.3" r="1.0" fill="rgba(255,255,255,0.07)"/>
    <circle cx="359.0" cy="383.6" r="1.0" fill="rgba(255,255,255,0.07)"/>
    <circle cx="354.9" cy="387.8" r="1.0" fill="rgba(255,255,255,0.06)"/>
    <circle cx="350.7" cy="391.8" r="1.0" fill="rgba(255,255,255,0.06)"/>
    <circle cx="346.4" cy="395.7" r="1.0" fill="rgba(255,255,255,0.05)"/>
    <circle cx="341.8" cy="399.5" r="1.0" fill="rgba(255,255,255,0.05)"/>
    <circle cx="337.1" cy="403.1" r="1.0" fill="rgba(255,255,255,0.05)"/>
    <circle cx="332.3" cy="406.6" r="1.0" fill="rgba(255,255,255,0.04)"/>
    <circle cx="327.3" cy="409.9" r="1.0" fill="rgba(255,255,255,0.04)"/>
    <circle cx="322.2" cy="413.0" r="1.0" fill="rgba(255,255,255,0.03)"/>
    <circle cx="316.9" cy="416.0" r="1.0" fill="rgba(255,255,255,0.03)"/>
    <circle cx="311.6" cy="418.8" r="1.0" fill="rgba(255,255,255,0.02)"/>
    <circle cx="306.1" cy="421.4" r="1.0" fill="rgba(255,255,255,0.02)"/>
    <circle cx="300.5" cy="423.8" r="1.0" fill="rgba(255,255,255,0.01)"/>
    <circle cx="294.7" cy="426.0" r="1.0" fill="rgba(255,255,255,0.01)"/>
    <circle cx="288.9" cy="428.1" r="1.0" fill="rgba(255,255,255,0.00)"/>
    <circle cx="267.6" cy="193.1" r="3.0" fill="rgba(255,255,255,0.64)"/>
    <circle cx="270.0" cy="192.7" r="3.0" fill="rgba(255,255,255,0.63)"/>
    <circle cx="272.4" cy="192.5" r="3.0" fill="rgba(255,255,255,0.63)"/>
    <circle cx="274.8" cy="192.3" r="3.0" fill="rgba(255,255,255,0.62)"/>
    <circle cx="277.3" cy="192.3" r="3.0" fill="rgba(255,255,255,0.62)"/>
    <circle cx="279.8" cy="192.3" r="3.0" fill="rgba(255,255,255,0.61)"/>
    <circle cx="282.3" cy="192.4" r="3.0" fill="rgba(255,255,255,0.61)"/>
    <circle cx="284.8" cy="192.6" r="3.0" fill="rgba(255,255,255,0.60)"/>
    <circle cx="287.4" cy="193.0" r="3.0" fill="rgba(255,255,255,0.60)"/>
    <circle cx="289.9" cy="193.4" r="3.0" fill="rgba(255,255,255,0.60)"/>
    <circle cx="292.5" cy="194.0" r="3.0" fill="rgba(255,255,255,0.59)"/>
    <circle cx="295.1" cy="194.6" r="3.0" fill="rgba(255,255,255,0.59)"/>
    <circle cx="297.7" cy="195.3" r="3.0" fill="rgba(255,255,255,0.58)"/>
    <circle cx="300.3" cy="196.2" r="3.0" fill="rgba(255,255,255,0.58)"/>
    <circle cx="302.8" cy="197.2" r="3.0" fill="rgba(255,255,255,0.57)"/>
    <circle cx="305.4" cy="198.2" r="3.0" fill="rgba(255,255,255,0.57)"/>
    <circle cx="307.9" cy="199.4" r="3.0" fill="rgba(255,255,255,0.56)"/>
    <circle cx="310.4" cy="200.7" r="3.0" fill="rgba(255,255,255,0.56)"/>
    <circle cx="312.9" cy="202.1" r="3.0" fill="rgba(255,255,255,0.55)"/>
    <circle cx="315.3" cy="203.6" r="3.0" fill="rgba(255,255,255,0.55)"/>
    <circle cx="317.8" cy="205.2" r="3.0" fill="rgba(255,255,255,0.55)"/>
    <circle cx="320.1" cy="206.9" r="3.0" fill="rgba(255,255,255,0.54)"/>
    <circle cx="322.5" cy="208.7" r="3.0" fill="rgba(255,255,255,0.54)"/>
    <circle cx="324.8" cy="210.6" r="3.0" fill="rgba(255,255,255,0.53)"/>
    <circle cx="327.0" cy="212.6" r="3.0" fill="rgba(255,255,255,0.53)"/>
    <circle cx="329.2" cy="214.7" r="3.0" fill="rgba(255,255,255,0.52)"/>
    <circle cx="331.3" cy="216.9" r="3.0" fill="rgba(255,255,255,0.52)"/>
    <circle cx="333.3" cy="219.2" r="3.0" fill="rgba(255,255,255,0.51)"/>
    <circle cx="335.3" cy="221.7" r="3.0" fill="rgba(255,255,255,0.51)"/>
    <circle cx="337.2" cy="224.2" r="3.0" fill="rgba(255,255,255,0.50)"/>
    <circle cx="339.0" cy="226.8" r="3.0" fill="rgba(255,255,255,0.50)"/>
    <circle cx="340.7" cy="229.4" r="3.0" fill="rgba(255,255,255,0.50)"/>
    <circle cx="342.4" cy="232.2" r="3.0" fill="rgba(255,255,255,0.49)"/>
    <circle cx="343.9" cy="235.1" r="3.0" fill="rgba(255,255,255,0.49)"/>
    <circle cx="345.4" cy="238.0" r="3.0" fill="rgba(255,255,255,0.48)"/>
    <circle cx="346.8" cy="241.0" r="3.0" fill="rgba(255,255,255,0.48)"/>
    <circle cx="348.0" cy="244.1" r="3.0" fill="rgba(255,255,255,0.47)"/>
    <circle cx="349.2" cy="247.2" r="3.0" fill="rgba(255,255,255,0.47)"/>
    <circle cx="350.2" cy="250.5" r="3.0" fill="rgba(255,255,255,0.46)"/>
    <circle cx="351.2" cy="253.7" r="3.0" fill="rgba(255,255,255,0.46)"/>
    <circle cx="352.0" cy="257.1" r="2.0" fill="rgba(255,255,255,0.45)"/>
    <circle cx="352.7" cy="260.5" r="2.0" fill="rgba(255,255,255,0.45)"/>
    <circle cx="353.3" cy="263.9" r="2.0" fill="rgba(255,255,255,0.45)"/>
    <circle cx="353.7" cy="267.4" r="2.0" fill="rgba(255,255,255,0.44)"/>
    <circle cx="354.1" cy="270.9" r="2.0" fill="rgba(255,255,255,0.44)"/>
    <circle cx="354.3" cy="274.5" r="2.0" fill="rgba(255,255,255,0.43)"/>
    <circle cx="354.3" cy="278.1" r="2.0" fill="rgba(255,255,255,0.43)"/>
    <circle cx="354.3" cy="281.7" r="2.0" fill="rgba(255,255,255,0.42)"/>
    <circle cx="354.1" cy="285.4" r="2.0" fill="rgba(255,255,255,0.42)"/>
    <circle cx="353.8" cy="289.1" r="2.0" fill="rgba(255,255,255,0.41)"/>
    <circle cx="353.3" cy="292.8" r="2.0" fill="rgba(255,255,255,0.41)"/>
    <circle cx="352.7" cy="296.4" r="2.0" fill="rgba(255,255,255,0.40)"/>
    <circle cx="351.9" cy="300.1" r="2.0" fill="rgba(255,255,255,0.40)"/>
    <circle cx="351.0" cy="303.8" r="2.0" fill="rgba(255,255,255,0.40)"/>
    <circle cx="350.0" cy="307.5" r="2.0" fill="rgba(255,255,255,0.39)"/>
    <circle cx="348.8" cy="311.2" r="2.0" fill="rgba(255,255,255,0.39)"/>
    <circle cx="347.5" cy="314.8" r="2.0" fill="rgba(255,255,255,0.38)"/>
    <circle cx="346.1" cy="318.4" r="2.0" fill="rgba(255,255,255,0.38)"/>
    <circle cx="344.5" cy="322.0" r="2.0" fill="rgba(255,255,255,0.37)"/>
    <circle cx="342.7" cy="325.6" r="2.0" fill="rgba(255,255,255,0.37)"/>
    <circle cx="340.8" cy="329.1" r="2.0" fill="rgba(255,255,255,0.36)"/>
    <circle cx="338.8" cy="332.6" r="2.0" fill="rgba(255,255,255,0.36)"/>
    <circle cx="336.7" cy="336.0" r="2.0" fill="rgba(255,255,255,0.35)"/>
    <circle cx="334.4" cy="339.3" r="2.0" fill="rgba(255,255,255,0.35)"/>
    <circle cx="331.9" cy="342.6" r="2.0" fill="rgba(255,255,255,0.35)"/>
    <circle cx="329.4" cy="345.9" r="2.0" fill="rgba(255,255,255,0.34)"/>
    <circle cx="326.6" cy="349.0" r="2.0" fill="rgba(255,255,255,0.34)"/>
    <circle cx="323.8" cy="352.1" r="2.0" fill="rgba(255,255,255,0.33)"/>
    <circle cx="320.8" cy="355.1" r="2.0" fill="rgba(255,255,255,0.33)"/>
    <circle cx="317.8" cy="358.0" r="2.0" fill="rgba(255,255,255,0.32)"/>
    <circle cx="314.5" cy="360.8" r="2.0" fill="rgba(255,255,255,0.32)"/>
    <circle cx="311.2" cy="363.4" r="2.0" fill="rgba(255,255,255,0.31)"/>
    <circle cx="307.7" cy="366.0" r="2.0" fill="rgba(255,255,255,0.31)"/>
    <circle cx="304.2" cy="368.5" r="2.0" fill="rgba(255,255,255,0.30)"/>
    <circle cx="300.5" cy="370.9" r="2.0" fill="rgba(255,255,255,0.30)"/>
    <circle cx="296.7" cy="373.1" r="2.0" fill="rgba(255,255,255,0.30)"/>
    <circle cx="292.8" cy="375.2" r="2.0" fill="rgba(255,255,255,0.29)"/>
    <circle cx="288.8" cy="377.2" r="2.0" fill="rgba(255,255,255,0.29)"/>
    <circle cx="284.8" cy="379.1" r="2.0" fill="rgba(255,255,255,0.28)"/>
    <circle cx="280.6" cy="380.8" r="2.0" fill="rgba(255,255,255,0.28)"/>
    <circle cx="276.3" cy="382.4" r="2.0" fill="rgba(255,255,255,0.27)"/>
    <circle cx="272.0" cy="383.8" r="2.0" fill="rgba(255,255,255,0.27)"/>
    <circle cx="267.6" cy="385.1" r="2.0" fill="rgba(255,255,255,0.26)"/>
    <circle cx="263.1" cy="386.2" r="2.0" fill="rgba(255,255,255,0.26)"/>
    <circle cx="258.6" cy="387.2" r="2.0" fill="rgba(255,255,255,0.25)"/>
    <circle cx="254.0" cy="388.0" r="2.0" fill="rgba(255,255,255,0.25)"/>
    <circle cx="249.3" cy="388.6" r="2.0" fill="rgba(255,255,255,0.25)"/>
    <circle cx="244.6" cy="389.1" r="2.0" fill="rgba(255,255,255,0.24)"/>
    <circle cx="239.9" cy="389.4" r="2.0" fill="rgba(255,255,255,0.24)"/>
    <circle cx="235.1" cy="389.6" r="2.0" fill="rgba(255,255,255,0.23)"/>
    <circle cx="230.3" cy="389.5" r="2.0" fill="rgba(255,255,255,0.23)"/>
    <circle cx="225.4" cy="389.3" r="2.0" fill="rgba(255,255,255,0.22)"/>
    <circle cx="220.6" cy="389.0" r="2.0" fill="rgba(255,255,255,0.22)"/>
    <circle cx="215.7" cy="388.4" r="2.0" fill="rgba(255,255,255,0.21)"/>
    <circle cx="210.8" cy="387.7" r="2.0" fill="rgba(255,255,255,0.21)"/>
    <circle cx="206.0" cy="386.8" r="2.0" fill="rgba(255,255,255,0.20)"/>
    <circle cx="201.1" cy="385.7" r="2.0" fill="rgba(255,255,255,0.20)"/>
    <circle cx="196.3" cy="384.4" r="2.0" fill="rgba(255,255,255,0.20)"/>
    <circle cx="191.5" cy="382.9" r="2.0" fill="rgba(255,255,255,0.19)"/>
    <circle cx="186.7" cy="381.3" r="2.0" fill="rgba(255,255,255,0.19)"/>
    <circle cx="181.9" cy="379.5" r="1.0" fill="rgba(255,255,255,0.18)"/>
    <circle cx="177.2" cy="377.5" r="1.0" fill="rgba(255,255,255,0.18)"/>
    <circle cx="172.5" cy="375.3" r="1.0" fill="rgba(255,255,255,0.17)"/>
    <circle cx="167.9" cy="373.0" r="1.0" fill="rgba(255,255,255,0.17)"/>
    <circle cx="163.4" cy="370.4" r="1.0" fill="rgba(255,255,255,0.16)"/>
    <circle cx="158.9" cy="367.7" r="1.0" fill="rgba(255,255,255,0.16)"/>
    <circle cx="154.5" cy="364.8" r="1.0" fill="rgba(255,255,255,0.15)"/>
    <circle cx="150.2" cy="361.8" r="1.0" fill="rgba(255,255,255,0.15)"/>
    <circle cx="146.0" cy="358.6" r="1.0" fill="rgba(255,255,255,0.15)"/>
    <circle cx="141.9" cy="355.2" r="1.0" fill="rgba(255,255,255,0.14)"/>
    <circle cx="137.8" cy="351.6" r="1.0" fill="rgba(255,255,255,0.14)"/>
    <circle cx="133.9" cy="347.9" r="1.0" fill="rgba(255,255,255,0.13)"/>
    <circle cx="130.1" cy="344.0" r="1.0" fill="rgba(255,255,255,0.13)"/>
    <circle cx="126.5" cy="340.0" r="1.0" fill="rgba(255,255,255,0.12)"/>
    <circle cx="122.9" cy="335.8" r="1.0" fill="rgba(255,255,255,0.12)"/>
    <circle cx="119.5" cy="331.5" r="1.0" fill="rgba(255,255,255,0.11)"/>
    <circle cx="116.2" cy="327.1" r="1.0" fill="rgba(255,255,255,0.11)"/>
    <circle cx="113.1" cy="322.5" r="1.0" fill="rgba(255,255,255,0.10)"/>
    <circle cx="110.1" cy="317.7" r="1.0" fill="rgba(255,255,255,0.10)"/>
    <circle cx="107.3" cy="312.9" r="1.0" fill="rgba(255,255,255,0.10)"/>
    <circle cx="104.7" cy="307.9" r="1.0" fill="rgba(255,255,255,0.09)"/>
    <circle cx="102.2" cy="302.8" r="1.0" fill="rgba(255,255,255,0.09)"/>
    <circle cx="99.8" cy="297.6" r="1.0" fill="rgba(255,255,255,0.08)"/>
    <circle cx="97.7" cy="292.3" r="1.0" fill="rgba(255,255,255,0.08)"/>
    <circle cx="95.7" cy="286.9" r="1.0" fill="rgba(255,255,255,0.07)"/>
    <circle cx="94.0" cy="281.4" r="1.0" fill="rgba(255,255,255,0.07)"/>
    <circle cx="92.4" cy="275.8" r="1.0" fill="rgba(255,255,255,0.06)"/>
    <circle cx="91.0" cy="270.1" r="1.0" fill="rgba(255,255,255,0.06)"/>
    <circle cx="89.8" cy="264.4" r="1.0" fill="rgba(255,255,255,0.05)"/>
    <circle cx="88.8" cy="258.6" r="1.0" fill="rgba(255,255,255,0.05)"/>
    <circle cx="88.0" cy="252.7" r="1.0" fill="rgba(255,255,255,0.05)"/>
    <circle cx="87.5" cy="246.8" r="1.0" fill="rgba(255,255,255,0.04)"/>
    <circle cx="87.1" cy="240.8" r="1.0" fill="rgba(255,255,255,0.04)"/>
    <circle cx="86.9" cy="234.8" r="1.0" fill="rgba(255,255,255,0.03)"/>
    <circle cx="87.0" cy="228.8" r="1.0" fill="rgba(255,255,255,0.03)"/>
    <circle cx="87.2" cy="222.7" r="1.0" fill="rgba(255,255,255,0.02)"/>
    <circle cx="87.7" cy="216.7" r="1.0" fill="rgba(255,255,255,0.02)"/>
    <circle cx="88.4" cy="210.6" r="1.0" fill="rgba(255,255,255,0.01)"/>
    <circle cx="89.4" cy="204.5" r="1.0" fill="rgba(255,255,255,0.01)"/>
    <circle cx="90.5" cy="198.5" r="1.0" fill="rgba(255,255,255,0.00)"/>
    <circle cx="304.7" cy="297.5" r="3.0" fill="rgba(255,255,255,0.64)"/>
    <circle cx="303.8" cy="299.7" r="3.0" fill="rgba(255,255,255,0.63)"/>
    <circle cx="302.8" cy="301.9" r="3.0" fill="rgba(255,255,255,0.63)"/>
    <circle cx="301.8" cy="304.1" r="3.0" fill="rgba(255,255,255,0.62)"/>
    <circle cx="300.6" cy="306.3" r="3.0" fill="rgba(255,255,255,0.62)"/>
    <circle cx="299.3" cy="308.4" r="3.0" fill="rgba(255,255,255,0.61)"/>
    <circle cx="297.9" cy="310.6" r="3.0" fill="rgba(255,255,255,0.61)"/>
    <circle cx="296.5" cy="312.6" r="3.0" fill="rgba(255,255,255,0.60)"/>
    <circle cx="294.9" cy="314.7" r="3.0" fill="rgba(255,255,255,0.60)"/>
    <circle cx="293.2" cy="316.7" r="3.0" fill="rgba(255,255,255,0.60)"/>
    <circle cx="291.5" cy="318.7" r="3.0" fill="rgba(255,255,255,0.59)"/>
    <circle cx="289.6" cy="320.6" r="3.0" fill="rgba(255,255,255,0.59)"/>
    <circle cx="287.7" cy="322.4" r="3.0" fill="rgba(255,255,255,0.58)"/>
    <circle cx="285.7" cy="324.2" r="3.0" fill="rgba(255,255,255,0.58)"/>
    <circle cx="283.6" cy="326.0" r="3.0" fill="rgba(255,255,255,0.57)"/>
    <circle cx="281.4" cy="327.6" r="3.0" fill="rgba(255,255,255,0.57)"/>
    <circle cx="279.1" cy="329.3" r="3.0" fill="rgba(255,255,255,0.56)"/>
    <circle cx="276.7" cy="330.8" r="3.0" fill="rgba(255,255,255,0.56)"/>
    <circle cx="274.3" cy="332.2" r="3.0" fill="rgba(255,255,255,0.55)"/>
    <circle cx="271.7" cy="333.6" r="3.0" fill="rgba(255,255,255,0.55)"/>
    <circle cx="269.2" cy="334.9" r="3.0" fill="rgba(255,255,255,0.55)"/>
    <circle cx="266.5" cy="336.1" r="3.0" fill="rgba(255,255,255,0.54)"/>
    <circle cx="263.8" cy="337.2" r="3.0" fill="rgba(255,255,255,0.54)"/>
    <circle cx="261.0" cy="338.3" r="3.0" fill="rgba(255,255,255,0.53)"/>
    <circle cx="258.1" cy="339.2" r="3.0" fill="rgba(255,255,255,0.53)"/>
    <circle cx="255.2" cy="340.0" r="3.0" fill="rgba(255,255,255,0.52)"/>
    <circle cx="252.2" cy="340.7" r="3.0" fill="rgba(255,255,255,0.52)"/>
    <circle cx="249.2" cy="341.3" r="3.0" fill="rgba(255,255,255,0.51)"/>
    <circle cx="246.1" cy="341.8" r="3.0" fill="rgba(255,255,255,0.51)"/>
    <circle cx="243.0" cy="342.2" r="3.0" fill="rgba(255,255,255,0.50)"/>
    <circle cx="239.8" cy="342.5" r="3.0" fill="rgba(255,255,255,0.50)"/>
    <circle cx="236.6" cy="342.7" r="3.0" fill="rgba(255,255,255,0.50)"/>
    <circle cx="233.4" cy="342.7" r="3.0" fill="rgba(255,255,255,0.49)"/>
    <circle cx="230.2" cy="342.6" r="3.0" fill="rgba(255,255,255,0.49)"/>
    <circle cx="226.9" cy="342.4" r="3.0" fill="rgba(255,255,255,0.48)"/>
    <circle cx="223.6" cy="342.1" r="3.0" fill="rgba(255,255,255,0.48)"/>
    <circle cx="220.3" cy="341.7" r="3.0" fill="rgba(255,255,255,0.47)"/>
    <circle cx="217.0" cy="341.1" r="3.0" fill="rgba(255,255,255,0.47)"/>
    <circle cx="213.7" cy="340.4" r="3.0" fill="rgba(255,255,255,0.46)"/>
    <circle cx="210.4" cy="339.6" r="3.0" fill="rgba(255,255,255,0.46)"/>
    <circle cx="207.1" cy="338.6" r="2.0" fill="rgba(255,255,255,0.45)"/>
    <circle cx="203.8" cy="337.5" r="2.0" fill="rgba(255,255,255,0.45)"/>
    <circle cx="200.5" cy="336.3" r="2.0" fill="rgba(255,255,255,0.45)"/>
    <circle cx="197.3" cy="334.9" r="2.0" fill="rgba(255,255,255,0.44)"/>
    <circle cx="194.0" cy="333.5" r="2.0" fill="rgba(255,255,255,0.44)"/>
    <circle cx="190.8" cy="331.8" r="2.0" fill="rgba(255,255,255,0.43)"/>
    <circle cx="187.7" cy="330.1" r="2.0" fill="rgba(255,255,255,0.43)"/>
    <circle cx="184.6" cy="328.2" r="2.0" fill="rgba(255,255,255,0.42)"/>
    <circle cx="181.5" cy="326.2" r="2.0" fill="rgba(255,255,255,0.42)"/>
    <circle cx="178.5" cy="324.1" r="2.0" fill="rgba(255,255,255,0.41)"/>
    <circle cx="175.5" cy="321.9" r="2.0" fill="rgba(255,255,255,0.41)"/>
    <circle cx="172.6" cy="319.5" r="2.0" fill="rgba(255,255,255,0.40)"/>
    <circle cx="169.8" cy="317.0" r="2.0" fill="rgba(255,255,255,0.40)"/>
    <circle cx="167.1" cy="314.4" r="2.0" fill="rgba(255,255,255,0.40)"/>
    <circle cx="164.4" cy="311.7" r="2.0" fill="rgba(255,255,255,0.39)"/>
    <circle cx="161.8" cy="308.8" r="2.0" fill="rgba(255,255,255,0.39)"/>
    <circle cx="159.3" cy="305.9" r="2.0" fill="rgba(255,255,255,0.38)"/>
    <circle cx="156.9" cy="302.8" r="2.0" fill="rgba(255,255,255,0.38)"/>
    <circle cx="154.6" cy="299.6" r="2.0" fill="rgba(255,255,255,0.37)"/>
    <circle cx="152.4" cy="296.3" r="2.0" fill="rgba(255,255,255,0.37)"/>
    <circle cx="150.3" cy="292.9" r="2.0" fill="rgba(255,255,255,0.36)"/>
    <circle cx="148.3" cy="289.4" r="2.0" fill="rgba(255,255,255,0.36)"/>
    <circle cx="146.4" cy="285.9" r="2.0" fill="rgba(255,255,255,0.35)"/>
    <circle cx="144.6" cy="282.2" r="2.0" fill="rgba(255,255,255,0.35)"/>
    <circle cx="143.0" cy="278.4" r="2.0" fill="rgba(255,255,255,0.35)"/>
    <circle cx="141.5" cy="274.6" r="2.0" fill="rgba(255,255,255,0.34)"/>
    <circle cx="140.1" cy="270.7" r="2.0" fill="rgba(255,255,255,0.34)"/>
    <circle cx="138.9" cy="266.7" r="2.0" fill="rgba(255,255,255,0.33)"/>
    <circle cx="137.8" cy="262.6" r="2.0" fill="rgba(255,255,255,0.33)"/>
    <circle cx="136.8" cy="258.5" r="2.0" fill="rgba(255,255,255,0.32)"/>
    <circle cx="136.0" cy="254.3" r="2.0" fill="rgba(255,255,255,0.32)"/>
    <circle cx="135.3" cy="250.1" r="2.0" fill="rgba(255,255,255,0.31)"/>
    <circle cx="134.8" cy="245.8" r="2.0" fill="rgba(255,255,255,0.31)"/>
    <circle cx="134.5" cy="241.5" r="2.0" fill="rgba(255,255,255,0.30)"/>
    <circle cx="134.3" cy="237.1" r="2.0" fill="rgba(255,255,255,0.30)"/>
    <circle cx="134.2" cy="232.7" r="2.0" fill="rgba(255,255,255,0.30)"/>
    <circle cx="134.3" cy="228.3" r="2.0" fill="rgba(255,255,255,0.29)"/>
    <circle cx="134.6" cy="223.8" r="2.0" fill="rgba(255,255,255,0.29)"/>
    <circle cx="135.0" cy="219.4" r="2.0" fill="rgba(255,255,255,0.28)"/>
    <circle cx="135.6" cy="214.9" r="2.0" fill="rgba(255,255,255,0.28)"/>
    <circle cx="136.4" cy="210.4" r="2.0" fill="rgba(255,255,255,0.27)"/>
    <circle cx="137.3" cy="206.0" r="2.0" fill="rgba(255,255,255,0.27)"/>
    <circle cx="138.4" cy="201.5" r="2.0" fill="rgba(255,255,255,0.26)"/>
    <circle cx="139.7" cy="197.1" r="2.0" fill="rgba(255,255,255,0.26)"/>
    <circle cx="141.1" cy="192.6" r="2.0" fill="rgba(255,255,255,0.25)"/>
    <circle cx="142.7" cy="188.2" r="2.0" fill="rgba(255,255,255,0.25)"/>
    <circle cx="144.5" cy="183.9" r="2.0" fill="rgba(255,255,255,0.25)"/>
    <circle cx="146.4" cy="179.6" r="2.0" fill="rgba(255,255,255,0.24)"/>
    <circle cx="148.5" cy="175.3" r="2.0" fill="rgba(255,255,255,0.24)"/>
    <circle cx="150.8" cy="171.1" r="2.0" fill="rgba(255,255,255,0.23)"/>
    <circle cx="153.2" cy="166.9" r="2.0" fill="rgba(255,255,255,0.23)"/>
    <circle cx="155.8" cy="162.9" r="2.0" fill="rgba(255,255,255,0.22)"/>
    <circle cx="158.6" cy="158.8" r="2.0" fill="rgba(255,255,255,0.22)"/>
    <circle cx="161.5" cy="154.9" r="2.0" fill="rgba(255,255,255,0.21)"/>
    <circle cx="164.6" cy="151.1" r="2.0" fill="rgba(255,255,255,0.21)"/>
    <circle cx="167.8" cy="147.3" r="2.0" fill="rgba(255,255,255,0.20)"/>
    <circle cx="171.2" cy="143.6" r="2.0" fill="rgba(255,255,255,0.20)"/>
    <circle cx="174.7" cy="140.1" r="2.0" fill="rgba(255,255,255,0.20)"/>
    <circle cx="178.3" cy="136.6" r="2.0" fill="rgba(255,255,255,0.19)"/>
    <circle cx="182.2" cy="133.3" r="2.0" fill="rgba(255,255,255,0.19)"/>
    <circle cx="186.1" cy="130.1" r="1.0" fill="rgba(255,255,255,0.18)"/>
    <circle cx="190.2" cy="127.0" r="1.0" fill="rgba(255,255,255,0.18)"/>
    <circle cx="194.4" cy="124.1" r="1.0" fill="rgba(255,255,255,0.17)"/>
    <circle cx="198.7" cy="121.3" r="1.0" fill="rgba(255,255,255,0.17)"/>
    <circle cx="203.2" cy="118.6" r="1.0" fill="rgba(255,255,255,0.16)"/>
    <circle cx="207.8" cy="116.1" r="1.0" fill="rgba(255,255,255,0.16)"/>
    <circle cx="212.5" cy="113.7" r="1.0" fill="rgba(255,255,255,0.15)"/>
    <circle cx="217.3" cy="111.5" r="1.0" fill="rgba(255,255,255,0.15)"/>
    <circle cx="222.2" cy="109.5" r="1.0" fill="rgba(255,255,255,0.15)"/>
    <circle cx="227.2" cy="107.6" r="1.0" fill="rgba(255,255,255,0.14)"/>
    <circle cx="232.3" cy="105.9" r="1.0" fill="rgba(255,255,255,0.14)"/>
    <circle cx="237.4" cy="104.3" r="1.0" fill="rgba(255,255,255,0.13)"/>
    <circle cx="242.7" cy="103.0" r="1.0" fill="rgba(255,255,255,0.13)"/>
    <circle cx="248.0" cy="101.8" r="1.0" fill="rgba(255,255,255,0.12)"/>
    <circle cx="253.4" cy="100.8" r="1.0" fill="rgba(255,255,255,0.12)"/>
    <circle cx="258.8" cy="100.0" r="1.0" fill="rgba(255,255,255,0.11)"/>
    <circle cx="264.3" cy="99.4" r="1.0" fill="rgba(255,255,255,0.11)"/>
    <circle cx="269.9" cy="99.0" r="1.0" fill="rgba(255,255,255,0.10)"/>
    <circle cx="275.5" cy="98.8" r="1.0" fill="rgba(255,255,255,0.10)"/>
    <circle cx="281.1" cy="98.8" r="1.0" fill="rgba(255,255,255,0.10)"/>
    <circle cx="286.7" cy="99.0" r="1.0" fill="rgba(255,255,255,0.09)"/>
    <circle cx="292.4" cy="99.4" r="1.0" fill="rgba(255,255,255,0.09)"/>
    <circle cx="298.0" cy="100.0" r="1.0" fill="rgba(255,255,255,0.08)"/>
    <circle cx="303.7" cy="100.8" r="1.0" fill="rgba(255,255,255,0.08)"/>
    <circle cx="309.4" cy="101.8" r="1.0" fill="rgba(255,255,255,0.07)"/>
    <circle cx="315.0" cy="103.0" r="1.0" fill="rgba(255,255,255,0.07)"/>
    <circle cx="320.7" cy="104.4" r="1.0" fill="rgba(255,255,255,0.06)"/>
    <circle cx="326.3" cy="106.0" r="1.0" fill="rgba(255,255,255,0.06)"/>
    <circle cx="331.8" cy="107.9" r="1.0" fill="rgba(255,255,255,0.05)"/>
    <circle cx="337.4" cy="109.9" r="1.0" fill="rgba(255,255,255,0.05)"/>
    <circle cx="342.8" cy="112.2" r="1.0" fill="rgba(255,255,255,0.05)"/>
    <circle cx="348.3" cy="114.6" r="1.0" fill="rgba(255,255,255,0.04)"/>
    <circle cx="353.6" cy="117.3" r="1.0" fill="rgba(255,255,255,0.04)"/>
    <circle cx="358.9" cy="120.2" r="1.0" fill="rgba(255,255,255,0.03)"/>
    <circle cx="364.1" cy="123.2" r="1.0" fill="rgba(255,255,255,0.03)"/>
    <circle cx="369.2" cy="126.5" r="1.0" fill="rgba(255,255,255,0.02)"/>
    <circle cx="374.2" cy="129.9" r="1.0" fill="rgba(255,255,255,0.02)"/>
    <circle cx="379.1" cy="133.6" r="1.0" fill="rgba(255,255,255,0.01)"/>
    <circle cx="383.9" cy="137.4" r="1.0" fill="rgba(255,255,255,0.01)"/>
    <circle cx="388.6" cy="141.5" r="1.0" fill="rgba(255,255,255,0.00)"/>
    <circle cx="256" cy="256" r="15" fill="white"/>
    <circle cx="256" cy="256" r="10" fill="white"/>
    <circle cx="256" cy="256" r="5" fill="white"/>
  </g>
</svg>